<svg version="1.1" id="Layer_1" xmlns="http://www.w3.org/2000/svg" xmlns:xlink="http://www.w3.org/1999/xlink" x="0px" y="0px"
	 width="100%" viewBox="0 0 908 1280" enable-background="new 0 0 908 1280" xml:space="preserve">
<path fill="#000000" opacity="1.000000" stroke="none" 
	d="
M538.000000,1281.000000 
	C358.666656,1281.000000 179.833328,1281.000000 1.000000,1281.000000 
	C1.000000,854.333313 1.000000,427.666656 1.000000,1.000000 
	C303.666656,1.000000 606.333313,1.000000 909.000000,1.000000 
	C909.000000,427.666656 909.000000,854.333313 909.000000,1281.000000 
	C785.500000,1281.000000 662.000000,1281.000000 538.000000,1281.000000 
M222.485565,702.006958 
	C220.974365,705.837952 219.382919,709.639771 217.978119,713.509338 
	C216.910950,716.448914 216.000748,719.452271 215.166016,722.467529 
	C214.103226,726.306641 213.187027,730.186340 212.101944,734.829712 
	C211.104660,742.532837 210.107391,750.235962 208.732330,758.715759 
	C208.487518,767.640015 207.625092,776.600098 208.141464,785.480103 
	C208.932037,799.075256 210.506134,812.634521 212.071030,826.171631 
	C213.066162,834.779907 214.562927,843.334656 216.006958,851.884338 
	C216.564697,855.186584 217.449875,858.454773 218.448166,861.656677 
	C220.161484,867.151794 222.022324,872.603149 223.928238,878.035339 
	C226.406250,885.098206 228.970520,892.131042 231.538055,899.161987 
	C232.266983,901.158020 233.089523,903.123474 233.950806,905.066772 
	C236.313080,910.396729 238.329269,915.929016 241.199615,920.973145 
	C245.385696,928.329346 250.001755,935.465515 254.831421,942.419800 
	C257.052856,945.618530 260.216522,948.162842 262.988953,951.044189 
	C262.988953,951.044189 262.980865,951.098022 262.973755,951.470520 
	C262.973755,951.470520 263.074432,951.829285 262.902588,952.454224 
	C263.581329,953.028198 264.260101,953.602234 265.096619,954.647949 
	C265.306763,954.927368 265.583923,955.097717 266.259491,955.799988 
	C266.866913,957.051270 267.180298,958.617004 268.128510,959.503845 
	C275.446136,966.347290 282.381561,973.750732 290.424713,979.626404 
	C299.294006,986.105530 306.593384,995.101501 317.990051,998.823853 
	C320.223022,999.879639 322.462494,1000.921875 324.687866,1001.993408 
	C334.335419,1006.638733 343.753632,1011.868652 353.696838,1015.756531 
	C361.313354,1018.734558 369.600372,1019.986450 377.562134,1022.107605 
	C378.503326,1022.358398 379.273468,1023.251160 380.808350,1024.001465 
	C381.509430,1023.964478 382.210541,1023.927490 383.724548,1024.051880 
	C384.825745,1023.991516 385.926941,1023.931091 387.733612,1024.315308 
	C388.216156,1024.876831 388.651154,1025.877197 389.188202,1025.935425 
	C401.798370,1027.301514 414.419495,1028.565796 427.673401,1029.999634 
	C428.104462,1029.955200 428.535522,1029.910889 429.799103,1030.021729 
	C431.206055,1029.973022 432.612976,1029.924316 434.943512,1030.001953 
	C441.310791,1030.315918 447.679108,1030.900757 454.045135,1030.877075 
	C462.390228,1030.846191 470.735321,1030.373169 479.075928,1029.992065 
	C480.439240,1029.929810 481.779510,1029.362427 484.028137,1029.026367 
	C493.598175,1028.009644 503.196014,1027.198486 512.729370,1025.910278 
	C520.184387,1024.902954 527.565491,1023.334595 534.956482,1021.897583 
	C535.440063,1021.803528 535.727661,1020.701599 536.543091,1020.003174 
	C536.543091,1020.003174 536.964844,1019.866638 537.675659,1020.013428 
	C538.491760,1019.683411 539.307922,1019.353333 540.729614,1018.998535 
	C541.128662,1018.950867 541.527771,1018.903198 542.487610,1018.946777 
	C542.699463,1018.648621 542.911377,1018.350464 543.168762,1018.019348 
	C543.168762,1018.019348 543.185486,1017.965759 544.039368,1017.977966 
	C551.227051,1015.865234 558.643066,1014.311462 565.542786,1011.493591 
	C573.569824,1008.215393 581.212769,1003.958496 588.893494,999.883362 
	C594.760925,996.770203 600.635620,993.585876 606.124756,989.868652 
	C611.545837,986.197571 616.627686,981.981323 621.601868,977.705933 
	C627.538513,972.603394 633.495728,967.464050 638.896118,961.816711 
	C643.539734,956.960754 647.687622,951.561707 651.566284,946.058472 
	C658.274780,936.540161 664.875916,926.921936 670.978271,917.010864 
	C673.972351,912.148071 674.794006,905.739929 678.342285,901.485046 
	C681.849548,897.279236 678.087708,890.394897 684.564575,887.688110 
	C685.487976,887.302246 684.765869,883.377441 685.150879,881.150208 
	C685.370300,879.880371 686.289001,878.731445 687.162537,876.990662 
	C688.125732,872.994995 689.221741,867.956055 690.577881,862.988037 
	C691.553162,859.415649 693.355469,856.017029 693.950684,852.402893 
	C695.568054,842.581970 697.109741,832.721069 698.006348,822.814941 
	C699.566345,805.578857 700.619141,788.296997 702.038879,770.131897 
	C701.108154,758.893127 700.177429,747.654358 699.269226,736.687134 
	C699.132141,736.910217 698.757568,737.519714 698.756836,737.520874 
	C697.381348,733.108521 695.946106,728.494385 694.503906,723.882385 
	C693.600586,720.993896 692.823486,718.056824 691.751343,715.231995 
	C688.853027,707.595398 688.189087,699.017029 682.307312,692.621399 
	C682.114929,692.412170 681.971863,691.942871 682.072632,691.710449 
	C683.875793,687.549072 680.717163,684.933472 678.951050,681.137390 
	C675.977600,675.540161 673.041382,669.922852 670.020386,664.351440 
	C667.011108,658.801392 664.184448,653.128052 660.812317,647.803528 
	C647.819031,627.287659 634.752014,606.816345 621.477295,586.481873 
	C615.636902,577.535461 609.045532,569.081299 603.139038,560.175537 
	C597.605713,551.832520 592.660767,543.100952 587.198853,534.708313 
	C583.740356,529.394043 579.570923,524.539978 576.153198,519.202393 
	C572.280701,513.154602 569.057800,506.692688 565.230652,500.613342 
	C562.942200,496.978058 559.641174,493.959198 557.504944,490.254089 
	C554.559204,485.144653 552.313110,479.634277 549.697266,474.330170 
	C549.129333,473.178528 548.254150,472.180267 547.538879,471.099121 
	C545.365051,467.813324 543.060303,464.603668 541.070190,461.209778 
	C538.928772,457.557831 537.085693,453.730957 535.067078,449.230469 
	C532.141541,443.955109 530.840149,437.608795 525.275085,433.983765 
	C525.032288,432.395111 525.158997,430.459442 524.429810,428.932617 
	C521.309937,422.399994 517.698853,416.095581 514.726929,409.500580 
	C511.951263,403.340973 508.029114,397.733521 506.019287,391.203583 
	C505.811829,390.529449 504.664215,390.144684 503.816833,389.240906 
	C503.816833,389.240906 503.441528,389.080688 503.089447,388.440735 
	C502.230652,386.402649 505.077454,382.916168 500.319305,382.123230 
	C499.536011,381.992676 499.629456,377.595062 499.005524,375.252625 
	C498.294006,372.581299 495.310181,368.983368 494.052307,368.154297 
	C494.250488,367.054626 493.545532,366.852386 492.243927,363.974701 
	C490.406036,359.911499 489.381409,355.477417 488.059845,351.186249 
	C487.775604,350.263275 487.970734,348.606934 487.498322,348.420593 
	C483.799713,346.961182 484.262054,343.851196 483.963623,340.847626 
	C483.724884,338.444550 483.437622,334.431030 482.221741,334.032684 
	C477.988434,332.645905 479.807190,328.883942 478.310486,326.591003 
	C474.914703,321.388702 476.216278,314.653046 472.244781,309.385590 
	C469.872498,306.239288 469.349579,301.682251 468.074890,297.733704 
	C467.638031,296.380402 467.442963,294.949005 467.137451,293.553284 
	C471.282898,293.387695 467.934174,290.730927 467.734283,290.538361 
	C465.532837,288.417877 465.521851,288.484680 465.876190,285.470276 
	C465.962067,284.739532 465.739624,283.908508 465.451965,283.208679 
	C464.012848,279.707245 462.062256,276.346710 461.139954,272.720825 
	C460.126190,268.735199 460.036652,264.514496 459.500336,260.027374 
	C459.087311,261.046936 458.815613,261.717651 458.427765,262.675079 
	C457.460602,258.880646 456.563171,255.359863 455.665741,251.839096 
	C455.196625,251.845367 454.727478,251.851654 454.258362,251.857925 
	C453.239410,255.259827 452.220459,258.661743 451.270294,261.833984 
	C451.143372,261.578766 450.823914,260.936371 450.427002,260.138214 
	C449.942810,261.699707 449.258972,263.053406 449.170288,264.445038 
	C449.091187,265.686035 449.775543,266.955719 449.935547,268.236176 
	C450.223053,270.536865 448.008667,273.662628 446.232361,276.883179 
	C444.796417,279.486572 445.033447,282.995453 444.434174,286.084381 
	C444.103577,287.788239 443.703674,289.501404 443.095093,291.120117 
	C442.729126,292.093506 441.901550,292.893280 441.281403,293.771088 
	C444.615265,295.723541 441.600647,297.275330 440.942474,298.961121 
	C439.058960,303.785095 437.058319,308.565887 435.289032,313.431000 
	C434.052612,316.830933 433.295868,320.408600 432.005859,323.784943 
	C430.590332,327.489807 432.091278,332.280853 427.179596,334.877960 
	C425.889221,335.560211 426.358978,339.505890 425.949188,341.940918 
	C425.653412,343.698639 425.797424,346.438904 424.779510,347.005280 
	C420.902130,349.162781 421.695099,352.852448 420.939575,356.062805 
	C420.796509,356.670868 420.668030,357.386566 420.274048,357.814209 
	C417.932831,360.355499 415.503052,366.388367 415.239502,368.668640 
	C415.118683,368.561462 415.012146,368.425598 414.872559,368.356140 
	C414.759308,368.299774 414.502472,368.278564 414.485809,368.317444 
	C412.969055,371.853546 411.469360,375.396973 409.432281,379.341370 
	C409.242249,380.202240 409.052216,381.063110 408.203186,382.304138 
	C407.342590,384.727173 407.183167,388.162048 405.467377,389.351044 
	C402.413757,391.467041 403.695068,393.673889 403.223816,395.818939 
	C402.478394,396.277344 401.383148,396.559601 401.048157,397.224701 
	C399.610687,400.079010 398.527893,403.112640 397.078247,405.959961 
	C391.707336,416.509064 386.190552,426.984131 380.849976,437.548370 
	C379.557709,440.104706 379.003387,443.045624 377.632355,445.548157 
	C374.904510,450.527222 371.860992,455.334198 368.916840,460.193481 
	C367.055145,463.266205 365.091248,466.277527 363.254456,469.364746 
	C359.791962,475.184357 356.374512,481.030914 352.964417,486.881470 
	C350.306763,491.441071 347.847626,496.124756 345.018341,500.574036 
	C339.860840,508.684723 334.415375,516.612000 329.232513,524.706970 
	C320.336700,538.601257 311.684540,552.653137 302.662292,566.463989 
	C298.072388,573.490051 292.773712,580.049133 288.026093,586.977356 
	C283.509430,593.568542 279.201050,600.308105 274.963501,607.083923 
	C265.632111,622.004883 256.403137,636.989746 246.926163,652.615173 
	C243.692184,657.810913 240.283401,662.907959 237.278961,668.233215 
	C234.837250,672.561096 233.361206,677.494507 230.565613,681.544006 
	C228.058685,685.175293 228.395157,689.801697 225.207214,693.231567 
	C223.643219,694.914185 224.042923,698.422119 223.172684,701.260254 
	C223.172684,701.260254 223.055038,701.655151 222.485565,702.006958 
z"/>
<path fill="#65C4EF" opacity="1.000000" stroke="none" 
	d="
M247.132385,651.948547 
	C256.403137,636.989746 265.632111,622.004883 274.963501,607.083923 
	C279.201050,600.308105 283.509430,593.568542 288.026093,586.977356 
	C292.773712,580.049133 298.072388,573.490051 302.662292,566.463989 
	C311.684540,552.653137 320.336700,538.601257 329.232513,524.706970 
	C334.415375,516.612000 339.860840,508.684723 345.018341,500.574036 
	C347.847626,496.124756 350.306763,491.441071 352.964417,486.881470 
	C356.374512,481.030914 359.791962,475.184357 363.254456,469.364746 
	C365.091248,466.277527 367.055145,463.266205 368.916840,460.193481 
	C371.860992,455.334198 374.904510,450.527222 377.632355,445.548157 
	C379.003387,443.045624 379.557709,440.104706 380.849976,437.548370 
	C386.190552,426.984131 391.707336,416.509064 397.078247,405.959961 
	C398.527893,403.112640 399.610687,400.079010 401.048157,397.224701 
	C401.383148,396.559601 402.478394,396.277344 403.525696,396.287354 
	C401.202850,402.166718 398.327881,407.473633 396.023804,413.017822 
	C393.720001,418.561432 391.987122,424.342316 389.998260,430.008240 
	C389.992584,429.997314 390.016998,429.994873 389.797913,430.118530 
	C389.368378,430.501587 389.157928,430.760956 388.760712,431.027466 
	C388.573944,431.034546 388.200195,431.039093 388.120117,430.940491 
	C388.040070,430.841858 387.702240,430.850616 387.702240,430.850616 
	C387.702240,430.850616 388.037872,431.188873 387.953583,431.528259 
	C382.658112,441.773254 377.446960,451.678925 372.235809,461.584595 
	C372.526611,462.018494 372.817383,462.452423 373.108185,462.886322 
	C376.122772,461.900635 379.211029,461.095581 382.140503,459.901123 
	C409.943359,448.564819 438.644562,445.501892 468.121887,451.002441 
	C498.437866,456.659454 524.824341,470.649658 548.547302,490.026855 
	C552.345154,493.128998 557.333557,495.374664 559.931091,499.249939 
	C580.498657,529.934875 600.800598,560.802551 620.798706,591.862366 
	C630.037170,606.211060 641.405701,619.385681 644.496033,637.227783 
	C646.040161,646.142761 650.400574,654.532715 652.855896,663.336182 
	C656.246277,675.492493 659.544678,687.716370 661.968079,700.090393 
	C665.345398,717.335083 667.806458,734.757568 670.819946,752.076111 
	C671.581543,756.452698 672.951721,760.723328 673.811279,765.281372 
	C668.715881,769.342285 663.851379,773.164490 658.711670,776.754028 
	C657.293396,774.737305 655.745300,773.081970 655.125000,771.131592 
	C654.545044,769.308044 655.217102,767.125000 654.879517,765.179749 
	C651.046387,743.094910 647.865723,720.862610 643.060181,698.988403 
	C635.131531,662.898376 622.475098,628.445129 604.552368,595.984924 
	C587.684265,565.434875 567.453308,537.710144 540.128601,515.520447 
	C516.825928,496.596863 491.106934,483.385681 461.107513,478.646301 
	C436.061188,474.689362 412.032654,477.848755 388.630432,486.792145 
	C374.277069,492.277466 361.152344,500.129486 348.419312,508.750488 
	C344.325073,511.522522 340.144470,513.548645 337.436066,518.114075 
	C331.858765,527.515564 325.800476,536.637512 319.783478,545.771301 
	C303.659576,570.247375 287.231720,594.526428 271.361877,619.165405 
	C261.727661,634.123108 250.927856,648.519043 247.979889,666.964722 
	C246.597549,675.614075 242.753494,683.846497 241.022141,692.468140 
	C236.706161,713.960266 232.545639,735.501892 229.149612,757.153381 
	C227.231201,769.384216 226.947403,781.871460 225.677063,793.981323 
	C221.192215,782.969543 217.028809,772.190247 212.638199,761.504333 
	C212.050552,760.074158 210.314392,759.115906 209.110107,757.939087 
	C210.107391,750.235962 211.104660,742.532837 212.354874,734.628418 
	C213.341797,734.290710 214.619400,734.331604 214.730179,733.991943 
	C217.432678,725.705872 220.132507,717.414062 222.533020,709.037415 
	C223.197891,706.717346 222.907272,704.123413 223.055038,701.655151 
	C223.055038,701.655151 223.172684,701.260254 223.697235,701.300171 
	C225.349762,700.098145 226.816315,699.028992 227.552460,697.586914 
	C233.705292,685.534241 239.882904,673.488098 245.659927,661.254333 
	C246.947098,658.528503 246.682526,655.069824 247.132385,651.948547 
z"/>
<path fill="#5FC8E1" opacity="1.000000" stroke="none" 
	d="
M536.106445,1020.068481 
	C535.727661,1020.701599 535.440063,1021.803528 534.956482,1021.897583 
	C527.565491,1023.334595 520.184387,1024.902954 512.729370,1025.910278 
	C503.196014,1027.198486 493.598175,1028.009644 483.117004,1029.013428 
	C474.796265,1028.663330 467.386688,1028.326294 459.958344,1027.569092 
	C459.629669,1024.354126 459.054626,1021.559570 459.050049,1018.764099 
	C458.991852,983.177979 459.015533,947.591736 459.348053,911.855103 
	C460.922241,911.256287 462.203125,910.888489 463.405731,910.347046 
	C476.944763,904.251404 490.471771,898.129028 504.352600,891.947266 
	C515.149719,885.930725 525.596313,879.980713 536.117737,874.406433 
	C536.795471,877.647949 537.915955,880.512329 537.923584,883.379639 
	C538.036255,925.926636 538.039978,968.474243 537.920166,1011.021179 
	C537.911621,1014.038635 536.738220,1017.052795 536.106445,1020.068481 
z"/>
<path fill="#94D8EE" opacity="1.000000" stroke="none" 
	d="
M658.986877,776.986694 
	C663.851379,773.164490 668.715881,769.342285 674.119385,765.127380 
	C679.108459,762.151367 683.558655,759.567932 688.434570,757.021118 
	C696.617676,756.877319 698.543640,758.347717 700.467651,765.875610 
	C700.909180,767.603088 701.410767,769.315125 701.884644,771.034302 
	C700.619141,788.296997 699.566345,805.578857 698.006348,822.814941 
	C697.109741,832.721069 695.568054,842.581970 693.950684,852.402893 
	C693.355469,856.017029 691.553162,859.415649 690.577881,862.988037 
	C689.221741,867.956055 688.125732,872.994995 687.162537,876.990662 
	C686.289001,878.731445 685.370300,879.880371 685.150879,881.150208 
	C684.765869,883.377441 685.487976,887.302246 684.564575,887.688110 
	C678.087708,890.394897 681.849548,897.279236 678.342285,901.485046 
	C674.794006,905.739929 673.972351,912.148071 670.978271,917.010864 
	C664.875916,926.921936 658.274780,936.540161 651.566284,946.058472 
	C647.687622,951.561707 643.539734,956.960754 638.896118,961.816711 
	C633.495728,967.464050 627.538513,972.603394 621.601868,977.705933 
	C616.627686,981.981323 611.545837,986.197571 606.124756,989.868652 
	C600.635620,993.585876 594.760925,996.770203 588.893494,999.883362 
	C581.212769,1003.958496 573.569824,1008.215393 565.542786,1011.493591 
	C558.643066,1014.311462 551.227051,1015.865234 543.662842,1017.695801 
	C553.127502,1013.605347 563.414429,1010.648010 572.702148,1005.783020 
	C585.624573,999.014282 597.719421,990.681885 610.324158,983.284058 
	C617.232910,979.229248 619.619019,974.185730 619.310974,965.712830 
	C618.428101,941.436523 618.947754,917.107178 619.045959,892.799133 
	C619.064697,888.169556 619.678162,883.542419 620.198181,878.641907 
	C623.281006,876.207703 626.182861,874.045776 629.355774,871.708984 
	C634.898621,864.987671 640.953491,858.916809 645.278076,851.795166 
	C654.097778,837.271179 657.842957,821.213745 656.103943,804.165039 
	C655.383240,797.099365 654.053223,790.095764 653.145142,782.763916 
	C655.189026,780.638184 657.087952,778.812439 658.986877,776.986694 
z"/>
<path fill="#79D0E7" opacity="1.000000" stroke="none" 
	d="
M620.017212,878.914062 
	C619.678162,883.542419 619.064697,888.169556 619.045959,892.799133 
	C618.947754,917.107178 618.428101,941.436523 619.310974,965.712830 
	C619.619019,974.185730 617.232910,979.229248 610.324158,983.284058 
	C597.719421,990.681885 585.624573,999.014282 572.702148,1005.783020 
	C563.414429,1010.648010 553.127502,1013.605347 543.235840,1017.689697 
	C543.185486,1017.965759 543.168762,1018.019348 542.918579,1018.123779 
	C542.385803,1018.395508 542.138611,1018.604553 541.926819,1018.855469 
	C541.527771,1018.903198 541.128662,1018.950867 540.089661,1019.002319 
	C538.621399,1019.292969 537.793091,1019.579773 536.964844,1019.866577 
	C536.964844,1019.866638 536.543091,1020.003174 536.324829,1020.035828 
	C536.738220,1017.052795 537.911621,1014.038635 537.920166,1011.021179 
	C538.039978,968.474243 538.036255,925.926636 537.923584,883.379639 
	C537.915955,880.512329 536.795471,877.647949 536.420532,874.263306 
	C538.469666,872.456665 540.290771,871.168945 542.433716,869.988525 
	C544.050842,871.095459 545.347351,872.093506 546.641113,873.095032 
	C553.619690,878.497192 560.986450,883.071411 570.368530,884.235901 
	C578.077148,886.304504 585.441528,888.295715 593.546143,886.068237 
	C597.640381,885.377258 601.309570,884.698059 605.364197,884.000854 
	C610.505493,882.293335 615.261353,880.603699 620.017212,878.914062 
z"/>
<path fill="#6ECBF3" opacity="1.000000" stroke="none" 
	d="
M688.008789,756.984558 
	C683.558655,759.567932 679.108459,762.151367 674.350281,764.888672 
	C672.951721,760.723328 671.581543,756.452698 670.819946,752.076111 
	C667.806458,734.757568 665.345398,717.335083 661.968079,700.090393 
	C659.544678,687.716370 656.246277,675.492493 652.855896,663.336182 
	C650.400574,654.532715 646.040161,646.142761 644.496033,637.227783 
	C641.405701,619.385681 630.037170,606.211060 620.798706,591.862366 
	C600.800598,560.802551 580.498657,529.934875 559.931091,499.249939 
	C557.333557,495.374664 552.345154,493.128998 548.547302,490.026855 
	C524.824341,470.649658 498.437866,456.659454 468.121887,451.002441 
	C438.644562,445.501892 409.943359,448.564819 382.140503,459.901123 
	C379.211029,461.095581 376.122772,461.900635 373.108185,462.886322 
	C372.817383,462.452423 372.526611,462.018494 372.235809,461.584595 
	C377.446960,451.678925 382.658112,441.773254 387.983002,431.478699 
	C388.096710,431.089783 388.200195,431.039093 388.200195,431.039093 
	C388.200195,431.039093 388.573944,431.034546 388.979980,430.900909 
	C389.596375,430.509796 389.806671,430.252350 390.016998,429.994873 
	C390.016998,429.994873 389.992584,429.997314 390.409607,430.015198 
	C392.136475,429.844727 393.504730,429.838745 394.747589,429.441010 
	C416.982269,422.325226 439.789764,421.344177 462.660614,424.349121 
	C485.266357,427.319214 506.414215,435.123718 526.179626,446.614655 
	C528.892517,448.191833 532.122131,448.880402 535.112488,449.980377 
	C537.085693,453.730957 538.928772,457.557831 541.070190,461.209778 
	C543.060303,464.603668 545.365051,467.813324 547.538879,471.099121 
	C548.254150,472.180267 549.129333,473.178528 549.697266,474.330170 
	C552.313110,479.634277 554.559204,485.144653 557.504944,490.254089 
	C559.641174,493.959198 562.942200,496.978058 565.230652,500.613342 
	C569.057800,506.692688 572.280701,513.154602 576.153198,519.202393 
	C579.570923,524.539978 583.740356,529.394043 587.198853,534.708313 
	C592.660767,543.100952 597.605713,551.832520 603.139038,560.175537 
	C609.045532,569.081299 615.636902,577.535461 621.477295,586.481873 
	C634.752014,606.816345 647.819031,627.287659 660.812317,647.803528 
	C664.184448,653.128052 667.011108,658.801392 670.020386,664.351440 
	C673.041382,669.922852 675.977600,675.540161 678.717651,681.404175 
	C677.842407,681.355469 677.200562,681.040039 676.064270,680.481506 
	C678.534363,693.457458 681.212646,705.739136 683.138550,718.137573 
	C685.140747,731.027771 686.415771,744.030823 688.008789,756.984558 
z"/>
<path fill="#4FBCDB" opacity="1.000000" stroke="none" 
	d="
M459.018372,912.005493 
	C459.015533,947.591736 458.991852,983.177979 459.050049,1018.764099 
	C459.054626,1021.559570 459.629669,1024.354126 459.492279,1027.571777 
	C452.251648,1027.998047 445.454895,1027.888428 438.667511,1028.090820 
	C437.101990,1028.137451 435.568298,1029.252197 434.019958,1029.875488 
	C432.612976,1029.924316 431.206055,1029.973022 429.215942,1029.789917 
	C428.101410,1029.655029 427.570007,1029.751953 427.038635,1029.848877 
	C414.419495,1028.565796 401.798370,1027.301514 389.188202,1025.935425 
	C388.651154,1025.877197 388.216156,1024.876831 387.492554,1023.783325 
	C389.368256,1023.409607 391.680420,1023.070984 393.567780,1023.812988 
	C401.391449,1026.888550 403.097229,1025.960571 403.010681,1018.102417 
	C403.008850,1017.936340 403.010071,1017.770203 403.010132,1017.604126 
	C403.016174,986.710266 403.022217,955.816406 403.343689,924.706482 
	C422.112183,920.328735 440.565277,916.167114 459.018372,912.005493 
z"/>
<path fill="#1291C7" opacity="1.000000" stroke="none" 
	d="
M208.921204,758.327393 
	C210.314392,759.115906 212.050552,760.074158 212.638199,761.504333 
	C217.028809,772.190247 221.192215,782.969543 225.702057,794.185425 
	C225.977295,794.651367 226.085342,795.050537 226.171539,795.271729 
	C226.450226,795.755737 226.695557,795.952698 227.008835,796.460938 
	C230.626328,805.277588 234.228745,813.717163 237.913605,822.502686 
	C242.652710,831.920837 247.309372,840.992981 252.039429,850.403625 
	C256.046143,856.583313 259.979431,862.424561 263.983185,868.595337 
	C265.154846,870.575500 266.090271,872.371033 267.385498,873.851929 
	C273.584961,880.940369 279.882019,887.943542 285.726471,894.988770 
	C281.370728,895.036499 282.007965,897.966370 282.004608,900.364929 
	C281.976257,920.461121 281.997406,940.557251 281.972351,960.653442 
	C281.970001,962.534790 281.752655,964.415955 281.533508,967.923523 
	C277.056213,963.481750 273.793854,960.035950 270.273499,956.877747 
	C269.186188,955.902283 267.396332,955.709900 265.928131,955.158997 
	C265.583923,955.097717 265.306763,954.927368 264.917542,954.028564 
	C264.183807,952.882568 263.629120,952.355957 263.074432,951.829285 
	C263.074432,951.829285 262.973755,951.470520 263.196411,951.229797 
	C263.263672,950.994019 263.108276,950.998962 262.952881,951.003906 
	C260.216522,948.162842 257.052856,945.618530 254.831421,942.419800 
	C250.001755,935.465515 245.385696,928.329346 241.199615,920.973145 
	C238.329269,915.929016 236.313080,910.396729 233.950806,905.066772 
	C233.089523,903.123474 232.266983,901.158020 231.538055,899.161987 
	C228.970520,892.131042 226.406250,885.098206 223.928238,878.035339 
	C222.022324,872.603149 220.161484,867.151794 218.448166,861.656677 
	C217.449875,858.454773 216.564697,855.186584 216.006958,851.884338 
	C214.562927,843.334656 213.066162,834.779907 212.071030,826.171631 
	C210.506134,812.634521 208.932037,799.075256 208.141464,785.480103 
	C207.625092,776.600098 208.487518,767.640015 208.921204,758.327393 
z"/>
<path fill="#2DAEE5" opacity="1.000000" stroke="none" 
	d="
M415.936188,368.827515 
	C415.503052,366.388367 417.932831,360.355499 420.274048,357.814209 
	C420.668030,357.386566 420.796509,356.670868 420.939575,356.062805 
	C421.695099,352.852448 420.902130,349.162781 424.779510,347.005280 
	C425.797424,346.438904 425.653412,343.698639 425.949188,341.940918 
	C426.358978,339.505890 425.889221,335.560211 427.179596,334.877960 
	C432.091278,332.280853 430.590332,327.489807 432.005859,323.784943 
	C433.295868,320.408600 434.052612,316.830933 435.289032,313.431000 
	C437.058319,308.565887 439.058960,303.785095 440.942474,298.961121 
	C441.600647,297.275330 444.615265,295.723541 441.281403,293.771088 
	C441.901550,292.893280 442.729126,292.093506 443.095093,291.120117 
	C443.703674,289.501404 444.103577,287.788239 444.434174,286.084381 
	C445.033447,282.995453 444.796417,279.486572 446.232361,276.883179 
	C448.008667,273.662628 450.223053,270.536865 449.935547,268.236176 
	C449.775543,266.955719 449.091187,265.686035 449.170288,264.445038 
	C449.258972,263.053406 449.942810,261.699707 450.427002,260.138214 
	C450.823914,260.936371 451.143372,261.578766 451.270294,261.833984 
	C452.220459,258.661743 453.239410,255.259827 454.258362,251.857925 
	C454.727478,251.851654 455.196625,251.845367 455.665741,251.839096 
	C456.563171,255.359863 457.460602,258.880646 458.427765,262.675079 
	C458.815613,261.717651 459.087311,261.046936 459.500336,260.027374 
	C460.036652,264.514496 460.126190,268.735199 461.139954,272.720825 
	C462.062256,276.346710 464.012848,279.707245 465.451965,283.208679 
	C465.739624,283.908508 465.962067,284.739532 465.876190,285.470276 
	C465.521851,288.484680 465.532837,288.417877 467.734283,290.538361 
	C467.934174,290.730927 471.282898,293.387695 467.137451,293.553284 
	C467.442963,294.949005 467.638031,296.380402 468.074890,297.733704 
	C469.349579,301.682251 469.872498,306.239288 472.244781,309.385590 
	C476.216278,314.653046 474.914703,321.388702 478.310486,326.591003 
	C479.807190,328.883942 477.988434,332.645905 482.221741,334.032684 
	C483.437622,334.431030 483.724884,338.444550 483.963623,340.847626 
	C484.262054,343.851196 483.799713,346.961182 487.498322,348.420593 
	C487.970734,348.606934 487.775604,350.263275 488.059845,351.186249 
	C489.381409,355.477417 490.406036,359.911499 492.243927,363.974701 
	C493.545532,366.852386 494.250488,367.054626 494.003967,368.826721 
	C496.250610,375.813599 498.500488,382.145599 500.930237,388.407837 
	C501.115417,388.885071 502.574554,388.868011 503.441528,389.080688 
	C503.441528,389.080688 503.816833,389.240906 503.623230,389.689026 
	C502.910553,391.587341 502.391510,393.037506 501.809021,394.664978 
	C472.446442,384.394073 442.625458,380.121124 410.947510,386.320892 
	C412.072205,383.142853 412.899475,381.197510 413.444977,379.176178 
	C414.369049,375.751892 415.115234,372.279602 415.936188,368.827515 
z"/>
<path fill="#3EB1D5" opacity="1.000000" stroke="none" 
	d="
M403.028259,924.922546 
	C403.022217,955.816406 403.016174,986.710266 403.010132,1017.604126 
	C403.010071,1017.770203 403.008850,1017.936340 403.010681,1018.102417 
	C403.097229,1025.960571 401.391449,1026.888550 393.567780,1023.812988 
	C391.680420,1023.070984 389.368256,1023.409607 387.139801,1023.561035 
	C385.926941,1023.931091 384.825745,1023.991516 383.322998,1023.665161 
	C382.488312,1022.717346 382.055115,1022.156189 381.621948,1021.594971 
	C381.122284,1022.345398 380.622589,1023.095886 380.122894,1023.846313 
	C379.273468,1023.251160 378.503326,1022.358398 377.562134,1022.107605 
	C369.600372,1019.986450 361.313354,1018.734558 353.696838,1015.756531 
	C343.753632,1011.868652 334.335419,1006.638733 324.687866,1001.993408 
	C322.462494,1000.921875 320.223022,999.879639 318.301086,998.486938 
	C327.102051,1001.648865 335.591949,1005.147705 344.997375,1009.023865 
	C344.997375,1006.122925 344.997345,1004.179749 344.997345,1002.236572 
	C344.997406,980.787476 344.938202,959.338074 345.042023,937.889526 
	C345.066010,932.932434 345.647827,927.977966 346.392151,923.018066 
	C349.877106,923.334351 352.942932,923.654785 356.415405,924.059937 
	C368.216583,924.425720 379.611023,924.706726 391.465851,924.990356 
	C395.626892,924.969421 399.327576,924.945984 403.028259,924.922546 
z"/>
<path fill="#249ECC" opacity="1.000000" stroke="none" 
	d="
M345.972961,923.022339 
	C345.647827,927.977966 345.066010,932.932434 345.042023,937.889526 
	C344.938202,959.338074 344.997406,980.787476 344.997345,1002.236572 
	C344.997345,1004.179749 344.997375,1006.122925 344.997375,1009.023865 
	C335.591949,1005.147705 327.102051,1001.648865 318.228088,998.110107 
	C306.593384,995.101501 299.294006,986.105530 290.424713,979.626404 
	C282.381561,973.750732 275.446136,966.347290 268.128510,959.503845 
	C267.180298,958.617004 266.866913,957.051270 266.093811,955.479492 
	C267.396332,955.709900 269.186188,955.902283 270.273499,956.877747 
	C273.793854,960.035950 277.056213,963.481750 281.533508,967.923523 
	C281.752655,964.415955 281.970001,962.534790 281.972351,960.653442 
	C281.997406,940.557251 281.976257,920.461121 282.004608,900.364929 
	C282.007965,897.966370 281.370728,895.036499 286.052612,895.055298 
	C295.853180,900.745911 304.909698,906.381775 314.218445,912.261353 
	C324.971405,916.010864 335.472168,919.516602 345.972961,923.022339 
z"/>
<path fill="#39B1E6" opacity="1.000000" stroke="none" 
	d="
M415.587830,368.748077 
	C415.115234,372.279602 414.369049,375.751892 413.444977,379.176178 
	C412.899475,381.197510 412.072205,383.142853 410.947510,386.320892 
	C442.625458,380.121124 472.446442,384.394073 501.809021,394.664978 
	C502.391510,393.037506 502.910553,391.587341 503.691223,389.881409 
	C504.664215,390.144684 505.811829,390.529449 506.019287,391.203583 
	C508.029114,397.733521 511.951263,403.340973 514.726929,409.500580 
	C517.698853,416.095581 521.309937,422.399994 524.429810,428.932617 
	C525.158997,430.459442 525.032288,432.395111 525.275085,433.983765 
	C530.840149,437.608795 532.141541,443.955109 535.089783,449.605408 
	C532.122131,448.880402 528.892517,448.191833 526.179626,446.614655 
	C506.414215,435.123718 485.266357,427.319214 462.660614,424.349121 
	C439.789764,421.344177 416.982269,422.325226 394.747589,429.441010 
	C393.504730,429.838745 392.136475,429.844727 390.415283,430.026123 
	C391.987122,424.342316 393.720001,418.561432 396.023804,413.017822 
	C398.327881,407.473633 401.202850,402.166718 403.837280,396.393188 
	C403.695068,393.673889 402.413757,391.467041 405.467377,389.351044 
	C407.183167,388.162048 407.342590,384.727173 408.783142,381.896851 
	C409.564911,380.639679 409.766724,379.789795 409.968567,378.939880 
	C411.469360,375.396973 412.969055,371.853546 414.485809,368.317444 
	C414.502472,368.278564 414.759308,368.299774 414.872559,368.356140 
	C415.012146,368.425598 415.118683,368.561462 415.587830,368.748077 
z"/>
<path fill="#39B1E6" opacity="1.000000" stroke="none" 
	d="
M688.434570,757.021118 
	C686.415771,744.030823 685.140747,731.027771 683.138550,718.137573 
	C681.212646,705.739136 678.534363,693.457458 676.064270,680.481506 
	C677.200562,681.040039 677.842407,681.355469 678.763794,681.764404 
	C680.717163,684.933472 683.875793,687.549072 682.072632,691.710449 
	C681.971863,691.942871 682.114929,692.412170 682.307312,692.621399 
	C688.189087,699.017029 688.853027,707.595398 691.751343,715.231995 
	C692.823486,718.056824 693.600586,720.993896 694.503906,723.882385 
	C695.946106,728.494385 697.381348,733.108521 698.756836,737.520874 
	C698.757568,737.519714 699.132141,736.910217 699.269226,736.687134 
	C700.177429,747.654358 701.108154,758.893127 701.961792,770.583130 
	C701.410767,769.315125 700.909180,767.603088 700.467651,765.875610 
	C698.543640,758.347717 696.617676,756.877319 688.434570,757.021118 
z"/>
<path fill="#6ECBF3" opacity="1.000000" stroke="none" 
	d="
M247.029266,652.281860 
	C246.682526,655.069824 246.947098,658.528503 245.659927,661.254333 
	C239.882904,673.488098 233.705292,685.534241 227.552460,697.586914 
	C226.816315,699.028992 225.349762,700.098145 223.887848,701.222046 
	C224.042923,698.422119 223.643219,694.914185 225.207214,693.231567 
	C228.395157,689.801697 228.058685,685.175293 230.565613,681.544006 
	C233.361206,677.494507 234.837250,672.561096 237.278961,668.233215 
	C240.283401,662.907959 243.692184,657.810913 247.029266,652.281860 
z"/>
<path fill="#5ABDEB" opacity="1.000000" stroke="none" 
	d="
M434.481750,1029.938721 
	C435.568298,1029.252197 437.101990,1028.137451 438.667511,1028.090820 
	C445.454895,1027.888428 452.251648,1027.998047 459.511047,1027.991699 
	C467.386688,1028.326294 474.796265,1028.663330 482.668152,1029.014404 
	C481.779510,1029.362427 480.439240,1029.929810 479.075928,1029.992065 
	C470.735321,1030.373169 462.390228,1030.846191 454.045135,1030.877075 
	C447.679108,1030.900757 441.310791,1030.315918 434.481750,1029.938721 
z"/>
<path fill="#6ECBF3" opacity="1.000000" stroke="none" 
	d="
M222.770294,701.831055 
	C222.907272,704.123413 223.197891,706.717346 222.533020,709.037415 
	C220.132507,717.414062 217.432678,725.705872 214.730179,733.991943 
	C214.619400,734.331604 213.341797,734.290710 212.407715,734.237793 
	C213.187027,730.186340 214.103226,726.306641 215.166016,722.467529 
	C216.000748,719.452271 216.910950,716.448914 217.978119,713.509338 
	C219.382919,709.639771 220.974365,705.837952 222.770294,701.831055 
z"/>
<path fill="#39B1E6" opacity="1.000000" stroke="none" 
	d="
M503.265503,388.760712 
	C502.574554,388.868011 501.115417,388.885071 500.930237,388.407837 
	C498.500488,382.145599 496.250610,375.813599 494.009277,369.165344 
	C495.310181,368.983368 498.294006,372.581299 499.005524,375.252625 
	C499.629456,377.595062 499.536011,381.992676 500.319305,382.123230 
	C505.077454,382.916168 502.230652,386.402649 503.265503,388.760712 
z"/>
<path fill="#4FBCDB" opacity="1.000000" stroke="none" 
	d="
M380.465637,1023.923889 
	C380.622589,1023.095886 381.122284,1022.345398 381.621948,1021.594971 
	C382.055115,1022.156189 382.488312,1022.717346 382.916565,1023.584473 
	C382.210541,1023.927490 381.509430,1023.964478 380.465637,1023.923889 
z"/>
<path fill="#249ECC" opacity="1.000000" stroke="none" 
	d="
M262.988525,952.141724 
	C263.629120,952.355957 264.183807,952.882568 264.838684,953.792725 
	C264.260101,953.602234 263.581329,953.028198 262.988525,952.141724 
z"/>
<path fill="#2DAEE5" opacity="1.000000" stroke="none" 
	d="
M409.700439,379.140625 
	C409.766724,379.789795 409.564911,380.639679 409.112671,381.706787 
	C409.052216,381.063110 409.242249,380.202240 409.700439,379.140625 
z"/>
<path fill="#5FC8E1" opacity="1.000000" stroke="none" 
	d="
M537.320251,1019.940002 
	C537.793091,1019.579773 538.621399,1019.292969 539.786865,1019.014771 
	C539.307922,1019.353333 538.491760,1019.683411 537.320251,1019.940002 
z"/>
<path fill="#5ABDEB" opacity="1.000000" stroke="none" 
	d="
M427.356018,1029.924316 
	C427.570007,1029.751953 428.101410,1029.655029 428.799683,1029.712402 
	C428.535522,1029.910889 428.104462,1029.955200 427.356018,1029.924316 
z"/>
<path fill="#249ECC" opacity="1.000000" stroke="none" 
	d="
M262.970917,951.024048 
	C263.108276,950.998962 263.263672,950.994019 263.199951,951.043579 
	C262.980865,951.098022 262.988953,951.044189 262.970917,951.024048 
z"/>
<path fill="#5FC8E1" opacity="1.000000" stroke="none" 
	d="
M542.207214,1018.901123 
	C542.138611,1018.604553 542.385803,1018.395508 542.895874,1018.140259 
	C542.911377,1018.350464 542.699463,1018.648621 542.207214,1018.901123 
z"/>
<path fill="#5ABDEB" opacity="1.000000" stroke="none" 
	d="
M237.831146,822.156738 
	C234.228745,813.717163 230.626328,805.277588 226.887680,796.262329 
	C226.569824,795.432312 226.347794,795.220215 226.085342,795.050537 
	C226.085342,795.050537 225.977295,794.651367 225.952301,794.447266 
	C226.947403,781.871460 227.231201,769.384216 229.149612,757.153381 
	C232.545639,735.501892 236.706161,713.960266 241.022141,692.468140 
	C242.753494,683.846497 246.597549,675.614075 247.979889,666.964722 
	C250.927856,648.519043 261.727661,634.123108 271.361877,619.165405 
	C287.231720,594.526428 303.659576,570.247375 319.783478,545.771301 
	C325.800476,536.637512 331.858765,527.515564 337.436066,518.114075 
	C340.144470,513.548645 344.325073,511.522522 348.419312,508.750488 
	C361.152344,500.129486 374.277069,492.277466 388.630432,486.792145 
	C412.032654,477.848755 436.061188,474.689362 461.107513,478.646301 
	C491.106934,483.385681 516.825928,496.596863 540.128601,515.520447 
	C567.453308,537.710144 587.684265,565.434875 604.552368,595.984924 
	C622.475098,628.445129 635.131531,662.898376 643.060181,698.988403 
	C647.865723,720.862610 651.046387,743.094910 654.879517,765.179749 
	C655.217102,767.125000 654.545044,769.308044 655.125000,771.131592 
	C655.745300,773.081970 657.293396,774.737305 658.711670,776.754028 
	C657.087952,778.812439 655.189026,780.638184 652.870972,782.543335 
	C649.014954,776.003967 645.595642,769.375916 642.135193,762.769348 
	C639.762573,758.239746 637.332825,753.739990 634.946533,748.748901 
	C632.111877,732.107727 630.208496,715.705322 626.205688,699.832336 
	C618.289551,668.441895 606.840393,638.292847 590.991699,609.917175 
	C579.577454,589.480896 566.283997,570.283020 549.819031,553.761475 
	C539.221985,543.128052 527.088196,533.731873 514.591736,525.348511 
	C490.810608,509.394806 464.404785,501.837463 435.416534,502.811646 
	C415.299408,503.487762 396.688629,508.785767 378.946564,517.601562 
	C354.853577,529.573120 335.050354,547.088684 318.104706,567.658142 
	C294.913208,595.809021 278.137512,627.715027 265.887878,661.986145 
	C254.264084,694.506287 246.050919,727.866516 242.928726,762.326660 
	C241.296997,780.336365 240.312836,798.404480 238.967758,816.441040 
	C238.824371,818.363892 238.221100,820.252319 237.831146,822.156738 
z"/>
<path fill="#39B1E6" opacity="1.000000" stroke="none" 
	d="
M388.067291,431.139343 
	C388.037872,431.188873 387.702240,430.850616 387.702240,430.850616 
	C387.702240,430.850616 388.040070,430.841858 388.120117,430.940491 
	C388.200195,431.039093 388.096710,431.089783 388.067291,431.139343 
z"/>
<path fill="#39B1E6" opacity="1.000000" stroke="none" 
	d="
M389.797913,430.118530 
	C389.806671,430.252350 389.596375,430.509796 389.166748,430.893799 
	C389.157928,430.760956 389.368378,430.501587 389.797913,430.118530 
z"/>
<path fill="#5BB7E7" opacity="1.000000" stroke="none" 
	d="
M403.343689,924.706482 
	C399.327576,924.945984 395.626892,924.969421 391.530853,924.667480 
	C391.935486,923.127747 392.735504,921.913391 393.596558,920.606262 
	C391.501160,917.715088 389.401306,914.937622 387.426270,912.074036 
	C368.497253,884.628540 361.550812,853.521118 361.297302,820.922119 
	C361.186066,806.614136 363.229340,792.057434 366.175415,778.008179 
	C371.525787,752.493286 382.002625,729.286255 402.035919,711.476501 
	C412.722351,701.976379 425.111877,696.385132 439.508881,696.047119 
	C456.171509,695.656006 469.839020,703.010193 481.449371,714.101868 
	C498.997009,730.865417 508.302551,752.254639 513.937988,775.434814 
	C514.802795,778.992188 515.440735,782.365417 519.928345,783.309570 
	C520.050842,784.065002 520.090271,784.500977 519.864929,785.149780 
	C518.777588,786.856506 515.148132,788.070740 519.094116,790.507935 
	C519.079773,797.958496 519.105164,804.944763 518.927734,812.168762 
	C519.205566,813.968811 519.686096,815.531128 520.165649,817.453247 
	C520.147522,818.529175 520.130371,819.245239 519.800049,820.057190 
	C516.692810,822.980591 519.583435,822.606262 521.171875,823.384399 
	C521.179688,824.777283 521.110962,825.794373 521.148132,827.028564 
	C521.417786,827.528015 521.629333,827.768188 521.941406,828.338013 
	C522.035767,829.459412 522.077393,830.208862 521.858398,831.026367 
	C520.215393,833.754333 521.645020,834.206787 524.020386,834.271484 
	C524.401001,835.019165 524.653625,835.512634 524.525146,836.078674 
	C521.757446,837.304199 518.204163,836.157471 517.850281,840.913269 
	C517.335266,847.833862 516.400574,854.861450 514.481750,861.507507 
	C511.503021,871.824829 507.544952,881.859375 504.002014,892.013794 
	C490.471771,898.129028 476.944763,904.251404 463.405731,910.347046 
	C462.203125,910.888489 460.922241,911.256287 459.348053,911.855103 
	C440.565277,916.167114 422.112183,920.328735 403.343689,924.706482 
M411.972198,770.541748 
	C409.197632,776.221741 405.904480,781.712402 403.748566,787.618225 
	C397.942383,803.523621 396.509857,819.730896 399.655792,836.641846 
	C402.220245,850.427002 406.932587,863.022156 415.697327,873.751648 
	C421.443909,880.786499 428.841858,885.753479 438.714569,886.083862 
	C451.451569,886.510071 460.583008,880.214844 467.165405,870.468262 
	C485.113617,843.892090 486.269379,815.181702 476.179108,785.537231 
	C472.269653,774.051575 465.476654,764.237732 455.007446,757.958252 
	C450.397339,755.193054 444.338379,753.310730 439.043274,753.534668 
	C427.531525,754.021484 419.009399,760.775696 411.972198,770.541748 
z"/>
<path fill="#54B4E6" opacity="1.000000" stroke="none" 
	d="
M504.352600,891.947266 
	C507.544952,881.859375 511.503021,871.824829 514.481750,861.507507 
	C516.400574,854.861450 517.335266,847.833862 517.850281,840.913269 
	C518.204163,836.157471 521.757446,837.304199 524.582520,836.435791 
	C526.115967,840.455383 527.211060,844.190491 528.343994,848.270630 
	C532.958435,855.704163 537.535156,862.792725 542.111877,869.881287 
	C540.290771,871.168945 538.469666,872.456665 536.345703,873.887573 
	C525.596313,879.980713 515.149719,885.930725 504.352600,891.947266 
z"/>
<path fill="#C1E8EA" opacity="1.000000" stroke="none" 
	d="
M542.433716,869.988525 
	C537.535156,862.792725 532.958435,855.704163 528.720337,848.238281 
	C529.710022,846.353638 530.935669,844.837524 530.912598,843.340576 
	C530.813171,836.884338 529.811646,830.406982 530.131409,823.986816 
	C530.732178,811.925110 531.497314,799.825928 533.137939,787.871887 
	C535.909363,767.678650 541.420959,748.252563 551.789001,730.450867 
	C562.282959,712.432861 575.753357,698.602112 598.314331,697.137451 
	C599.030701,697.811218 599.512695,698.331787 600.261230,699.073975 
	C605.661377,706.926453 610.795105,714.557312 616.078064,722.485901 
	C622.461121,731.598083 628.694885,740.412476 634.928650,749.226929 
	C637.332825,753.739990 639.762573,758.239746 642.135193,762.769348 
	C645.595642,769.375916 649.014954,776.003967 652.726013,782.843384 
	C654.053223,790.095764 655.383240,797.099365 656.103943,804.165039 
	C657.842957,821.213745 654.097778,837.271179 645.278076,851.795166 
	C640.953491,858.916809 634.898621,864.987671 629.361450,871.328491 
	C629.315308,870.150513 629.439758,869.144897 629.767761,868.210754 
	C637.368713,846.563599 638.880920,824.289551 635.944519,801.729492 
	C633.656677,784.152100 628.551636,767.397156 616.202393,754.037598 
	C609.562561,746.854553 601.320740,741.999756 590.813721,745.048035 
	C577.619141,748.876160 570.672119,759.275085 565.339294,770.771484 
	C559.773560,782.770142 557.111572,795.575867 555.777588,808.804871 
	C553.611633,830.282654 556.298401,850.914978 564.392090,870.875305 
	C566.189148,875.307190 568.147095,879.673889 570.030884,884.070557 
	C560.986450,883.071411 553.619690,878.497192 546.641113,873.095032 
	C545.347351,872.093506 544.050842,871.095459 542.433716,869.988525 
z"/>
<path fill="#A8DFE2" opacity="1.000000" stroke="none" 
	d="
M570.368530,884.235901 
	C568.147095,879.673889 566.189148,875.307190 564.392090,870.875305 
	C556.298401,850.914978 553.611633,830.282654 555.777588,808.804871 
	C557.111572,795.575867 559.773560,782.770142 565.339294,770.771484 
	C570.672119,759.275085 577.619141,748.876160 590.813721,745.048035 
	C601.320740,741.999756 609.562561,746.854553 616.202393,754.037598 
	C628.551636,767.397156 633.656677,784.152100 635.944519,801.729492 
	C638.880920,824.289551 637.368713,846.563599 629.767761,868.210754 
	C629.439758,869.144897 629.315308,870.150513 629.090332,871.503357 
	C626.182861,874.045776 623.281006,876.207703 620.198181,878.641846 
	C615.261353,880.603699 610.505493,882.293335 605.458008,883.674194 
	C605.445618,882.957703 605.634094,882.408081 606.017395,882.162720 
	C616.998596,875.131714 621.721191,864.071594 625.426208,852.297852 
	C630.004272,837.749817 630.152100,822.775757 628.707703,807.911865 
	C627.362854,794.072693 623.423645,780.730713 614.609680,769.499207 
	C605.539429,757.941040 591.094849,753.770935 579.595276,767.998108 
	C575.178772,773.462158 571.414307,779.841003 568.925171,786.399719 
	C562.421021,803.537720 561.435120,821.453613 564.232910,839.483032 
	C566.320129,852.933350 569.882019,866.046997 579.691162,876.162170 
	C583.513000,880.103149 588.606689,882.810669 593.120972,886.080078 
	C585.441528,888.295715 578.077148,886.304504 570.368530,884.235901 
z"/>
<path fill="#93D7DB" opacity="1.000000" stroke="none" 
	d="
M593.546143,886.068237 
	C588.606689,882.810669 583.513000,880.103149 579.691162,876.162170 
	C569.882019,866.046997 566.320129,852.933350 564.232910,839.483032 
	C561.435120,821.453613 562.421021,803.537720 568.925171,786.399719 
	C571.414307,779.841003 575.178772,773.462158 579.595276,767.998108 
	C591.094849,753.770935 605.539429,757.941040 614.609680,769.499207 
	C623.423645,780.730713 627.362854,794.072693 628.707703,807.911865 
	C630.152100,822.775757 630.004272,837.749817 625.426208,852.297852 
	C621.721191,864.071594 616.998596,875.131714 606.017395,882.162720 
	C605.634094,882.408081 605.445618,882.957703 605.072510,883.692139 
	C601.309570,884.698059 597.640381,885.377258 593.546143,886.068237 
M602.949707,801.533691 
	C597.384827,796.548828 594.647644,796.644958 589.499146,802.006042 
	C581.379150,810.461426 581.358093,833.493774 589.462769,841.957214 
	C595.012329,847.752441 599.889221,847.261353 604.332520,840.455017 
	C604.786377,839.759766 605.323975,839.090637 605.630188,838.331726 
	C610.640564,825.914185 610.763123,813.783569 602.949707,801.533691 
z"/>
<path fill="#48B0E4" opacity="1.000000" stroke="none" 
	d="
M599.994751,698.852417 
	C599.512695,698.331787 599.030701,697.811218 598.156067,696.829468 
	C584.043762,675.331848 570.235352,654.342102 563.120850,629.793518 
	C558.162964,648.766113 553.280334,667.450562 548.073486,685.974487 
	C545.206970,683.262146 542.255066,680.998901 540.209167,678.097046 
	C536.188782,672.394531 532.979431,666.114502 528.891479,660.466431 
	C514.443176,640.503784 497.249756,623.700684 474.042450,614.015991 
	C460.110687,608.202148 445.603943,605.421814 430.650604,607.442810 
	C402.750580,611.213257 381.004333,625.873352 362.666138,646.659851 
	C344.291321,667.487793 331.750427,691.450745 322.691406,717.457397 
	C313.889496,742.725708 308.997955,768.749756 306.864838,795.409363 
	C305.119751,817.219238 305.446167,838.977051 308.366333,860.571899 
	C310.365662,875.356934 313.990387,889.934387 317.212524,904.533203 
	C318.029999,908.236755 317.817719,910.711792 313.966217,912.017578 
	C304.909698,906.381775 295.853180,900.745911 286.470520,895.043518 
	C279.882019,887.943542 273.584961,880.940369 267.385498,873.851929 
	C266.090271,872.371033 265.154846,870.575500 263.985168,868.151001 
	C262.945923,858.470825 261.273407,849.573853 261.157074,840.656494 
	C260.944550,824.363403 261.097565,808.022766 262.135162,791.768188 
	C263.148804,775.889404 264.567688,759.933899 267.369537,744.291687 
	C274.844421,702.561096 287.711914,662.605835 309.545837,625.928528 
	C323.091766,603.173584 339.308228,582.656128 360.308533,566.253296 
	C385.771423,546.364807 414.055481,535.095398 447.026764,536.858154 
	C463.174774,537.721497 478.235992,541.959961 492.540680,548.875488 
	C523.598022,563.889954 546.766785,587.838867 564.934692,616.492126 
	C574.423523,631.457275 582.150269,647.632324 589.635986,663.742676 
	C594.772400,674.797119 600.406555,686.021484 599.994751,698.852417 
z"/>
<path fill="#54B4E6" opacity="1.000000" stroke="none" 
	d="
M634.946533,748.748901 
	C628.694885,740.412476 622.461121,731.598083 616.161865,722.085632 
	C616.104980,718.788513 616.615051,716.073669 616.046387,713.607666 
	C608.324158,680.119995 596.005554,648.397705 578.806213,618.632812 
	C561.002869,587.822449 538.625549,561.292847 507.991180,542.238159 
	C487.055908,529.216248 464.251404,522.379517 439.932495,522.378296 
	C427.511902,522.377625 414.678192,524.845947 402.753632,528.534119 
	C375.285370,537.029785 352.849152,553.604614 333.505615,574.800842 
	C317.204956,592.662781 303.976624,612.536194 293.113281,633.964417 
	C273.347839,672.952332 261.866150,714.538757 256.111084,757.732605 
	C254.447403,770.218994 253.513123,782.836914 252.945740,795.426147 
	C252.264511,810.541382 252.330490,825.690308 252.078873,840.824829 
	C252.027679,843.904724 252.002960,846.984985 251.966034,850.065125 
	C247.309372,840.992981 242.652710,831.920837 237.913605,822.502686 
	C238.221100,820.252319 238.824371,818.363892 238.967758,816.441040 
	C240.312836,798.404480 241.296997,780.336365 242.928726,762.326660 
	C246.050919,727.866516 254.264084,694.506287 265.887878,661.986145 
	C278.137512,627.715027 294.913208,595.809021 318.104706,567.658142 
	C335.050354,547.088684 354.853577,529.573120 378.946564,517.601562 
	C396.688629,508.785767 415.299408,503.487762 435.416534,502.811646 
	C464.404785,501.837463 490.810608,509.394806 514.591736,525.348511 
	C527.088196,533.731873 539.221985,543.128052 549.819031,553.761475 
	C566.283997,570.283020 579.577454,589.480896 590.991699,609.917175 
	C606.840393,638.292847 618.289551,668.441895 626.205688,699.832336 
	C630.208496,715.705322 632.111877,732.107727 634.946533,748.748901 
z"/>
<path fill="#4EB2E5" opacity="1.000000" stroke="none" 
	d="
M252.039429,850.403625 
	C252.002960,846.984985 252.027679,843.904724 252.078873,840.824829 
	C252.330490,825.690308 252.264511,810.541382 252.945740,795.426147 
	C253.513123,782.836914 254.447403,770.218994 256.111084,757.732605 
	C261.866150,714.538757 273.347839,672.952332 293.113281,633.964417 
	C303.976624,612.536194 317.204956,592.662781 333.505615,574.800842 
	C352.849152,553.604614 375.285370,537.029785 402.753632,528.534119 
	C414.678192,524.845947 427.511902,522.377625 439.932495,522.378296 
	C464.251404,522.379517 487.055908,529.216248 507.991180,542.238159 
	C538.625549,561.292847 561.002869,587.822449 578.806213,618.632812 
	C596.005554,648.397705 608.324158,680.119995 616.046387,713.607666 
	C616.615051,716.073669 616.104980,718.788513 616.012573,721.787903 
	C610.795105,714.557312 605.661377,706.926453 600.261230,699.073975 
	C600.406555,686.021484 594.772400,674.797119 589.635986,663.742676 
	C582.150269,647.632324 574.423523,631.457275 564.934692,616.492126 
	C546.766785,587.838867 523.598022,563.889954 492.540680,548.875488 
	C478.235992,541.959961 463.174774,537.721497 447.026764,536.858154 
	C414.055481,535.095398 385.771423,546.364807 360.308533,566.253296 
	C339.308228,582.656128 323.091766,603.173584 309.545837,625.928528 
	C287.711914,662.605835 274.844421,702.561096 267.369537,744.291687 
	C264.567688,759.933899 263.148804,775.889404 262.135162,791.768188 
	C261.097565,808.022766 260.944550,824.363403 261.157074,840.656494 
	C261.273407,849.573853 262.945923,858.470825 263.914734,867.821411 
	C259.979431,862.424561 256.046143,856.583313 252.039429,850.403625 
z"/>
<path fill="#65C4EF" opacity="1.000000" stroke="none" 
	d="
M226.171539,795.271729 
	C226.347794,795.220215 226.569824,795.432312 226.872589,795.885315 
	C226.695557,795.952698 226.450226,795.755737 226.171539,795.271729 
z"/>
<path fill="#4EB2E5" opacity="1.000000" stroke="none" 
	d="
M314.218445,912.261353 
	C317.817719,910.711792 318.029999,908.236755 317.212524,904.533203 
	C313.990387,889.934387 310.365662,875.356934 308.366333,860.571899 
	C305.446167,838.977051 305.119751,817.219238 306.864838,795.409363 
	C308.997955,768.749756 313.889496,742.725708 322.691406,717.457397 
	C331.750427,691.450745 344.291321,667.487793 362.666138,646.659851 
	C381.004333,625.873352 402.750580,611.213257 430.650604,607.442810 
	C445.603943,605.421814 460.110687,608.202148 474.042450,614.015991 
	C497.249756,623.700684 514.443176,640.503784 528.891479,660.466431 
	C532.979431,666.114502 536.188782,672.394531 540.209167,678.097046 
	C542.255066,680.998901 545.206970,683.262146 548.016113,686.296509 
	C548.140137,687.190063 547.997375,687.601257 547.531860,688.136719 
	C545.820129,692.548279 544.431152,696.835510 543.063477,701.521729 
	C539.122742,714.416077 535.160645,726.911377 531.111328,739.032837 
	C529.490601,736.333130 527.717590,734.128174 526.470093,731.657898 
	C523.176086,725.135254 520.489929,718.281128 516.881836,711.946167 
	C506.106171,693.026733 492.676422,676.600586 472.887665,666.232239 
	C456.840363,657.824158 440.111908,655.623840 422.665710,660.320618 
	C405.602875,664.914185 391.911499,674.837158 380.387970,688.054138 
	C364.899872,705.818237 354.862396,726.464233 347.845215,748.746582 
	C343.036896,764.015015 340.554993,779.672974 338.595276,795.569092 
	C336.085358,815.927673 337.369598,835.989197 339.957520,856.117981 
	C342.413330,875.219360 347.812225,893.525940 355.175995,911.270691 
	C356.920654,915.474854 360.611572,919.411865 356.008728,923.975281 
	C352.942932,923.654785 349.877106,923.334351 346.392151,923.018066 
	C335.472168,919.516602 324.971405,916.010864 314.218445,912.261353 
z"/>
<path fill="#54B4E6" opacity="1.000000" stroke="none" 
	d="
M356.415405,924.059937 
	C360.611572,919.411865 356.920654,915.474854 355.175995,911.270691 
	C347.812225,893.525940 342.413330,875.219360 339.957520,856.117981 
	C337.369598,835.989197 336.085358,815.927673 338.595276,795.569092 
	C340.554993,779.672974 343.036896,764.015015 347.845215,748.746582 
	C354.862396,726.464233 364.899872,705.818237 380.387970,688.054138 
	C391.911499,674.837158 405.602875,664.914185 422.665710,660.320618 
	C440.111908,655.623840 456.840363,657.824158 472.887665,666.232239 
	C492.676422,676.600586 506.106171,693.026733 516.881836,711.946167 
	C520.489929,718.281128 523.176086,725.135254 526.470093,731.657898 
	C527.717590,734.128174 529.490601,736.333130 531.135498,739.402710 
	C528.859192,748.476257 526.370972,756.778870 524.118164,765.144958 
	C522.528381,771.048828 521.258118,777.038635 519.845215,782.990112 
	C515.440735,782.365417 514.802795,778.992188 513.937988,775.434814 
	C508.302551,752.254639 498.997009,730.865417 481.449371,714.101868 
	C469.839020,703.010193 456.171509,695.656006 439.508881,696.047119 
	C425.111877,696.385132 412.722351,701.976379 402.035919,711.476501 
	C382.002625,729.286255 371.525787,752.493286 366.175415,778.008179 
	C363.229340,792.057434 361.186066,806.614136 361.297302,820.922119 
	C361.550812,853.521118 368.497253,884.628540 387.426270,912.074036 
	C389.401306,914.937622 391.501160,917.715088 393.596558,920.606262 
	C392.735504,921.913391 391.935486,923.127747 391.070496,924.664978 
	C379.611023,924.706726 368.216583,924.425720 356.415405,924.059937 
z"/>
<path fill="#60B9E8" opacity="1.000000" stroke="none" 
	d="
M412.182587,770.247559 
	C419.009399,760.775696 427.531525,754.021484 439.043274,753.534668 
	C444.338379,753.310730 450.397339,755.193054 455.007446,757.958252 
	C465.476654,764.237732 472.269653,774.051575 476.179108,785.537231 
	C486.269379,815.181702 485.113617,843.892090 467.165405,870.468262 
	C460.583008,880.214844 451.451569,886.510071 438.714569,886.083862 
	C428.841858,885.753479 421.443909,880.786499 415.697327,873.751648 
	C406.932587,863.022156 402.220245,850.427002 399.655792,836.641846 
	C396.509857,819.730896 397.942383,803.523621 403.748566,787.618225 
	C405.904480,781.712402 409.197632,776.221741 412.182587,770.247559 
z"/>
<path fill="#E2F4F5" opacity="1.000000" stroke="none" 
	d="
M519.928345,783.309570 
	C521.258118,777.038635 522.528381,771.048828 524.118164,765.144958 
	C526.370972,756.778870 528.859192,748.476257 531.222656,739.776611 
	C535.160645,726.911377 539.122742,714.416077 543.388428,701.358521 
	C545.079529,696.534973 546.467041,692.273682 547.854492,688.012390 
	C547.997375,687.601257 548.140137,687.190063 548.340332,686.456970 
	C553.280334,667.450562 558.162964,648.766113 563.120850,629.793518 
	C570.235352,654.342102 584.043762,675.331848 597.921753,696.676331 
	C575.753357,698.602112 562.282959,712.432861 551.789001,730.450867 
	C541.420959,748.252563 535.909363,767.678650 533.137939,787.871887 
	C531.497314,799.825928 530.732178,811.925110 530.131409,823.986816 
	C529.811646,830.406982 530.813171,836.884338 530.912598,843.340576 
	C530.935669,844.837524 529.710022,846.353638 528.682556,847.893311 
	C527.211060,844.190491 526.115967,840.455383 524.963562,836.363159 
	C524.653625,835.512634 524.401001,835.019165 523.981934,833.967834 
	C523.250000,832.592712 522.684509,831.775574 522.118958,830.958374 
	C522.077393,830.208862 522.035767,829.459412 521.906250,828.084473 
	C521.559631,827.243225 521.300903,827.027283 521.042236,826.811401 
	C521.110962,825.794373 521.179688,824.777283 521.183167,823.044983 
	C520.783020,821.540283 520.448120,820.750793 520.113159,819.961365 
	C520.130371,819.245239 520.147522,818.529175 520.203979,817.057251 
	C519.872437,814.844604 519.501465,813.387817 519.130493,811.931030 
	C519.105164,804.944763 519.079773,797.958496 519.382324,790.255371 
	C519.850037,788.004700 519.989868,786.470825 520.129700,784.936951 
	C520.090271,784.500977 520.050842,784.065002 519.928345,783.309570 
z"/>
<path fill="#54B4E6" opacity="1.000000" stroke="none" 
	d="
M519.864868,785.149780 
	C519.989868,786.470825 519.850037,788.004700 519.421997,789.791077 
	C515.148132,788.070740 518.777588,786.856506 519.864868,785.149780 
z"/>
<path fill="#54B4E6" opacity="1.000000" stroke="none" 
	d="
M521.858398,831.026367 
	C522.684509,831.775574 523.250000,832.592712 523.854004,833.713562 
	C521.645020,834.206787 520.215393,833.754333 521.858398,831.026367 
z"/>
<path fill="#54B4E6" opacity="1.000000" stroke="none" 
	d="
M519.800110,820.057190 
	C520.448120,820.750793 520.783020,821.540283 521.106567,822.669067 
	C519.583435,822.606262 516.692810,822.980591 519.800110,820.057190 
z"/>
<path fill="#54B4E6" opacity="1.000000" stroke="none" 
	d="
M518.927734,812.168762 
	C519.501465,813.387817 519.872437,814.844604 520.205017,816.697388 
	C519.686096,815.531128 519.205566,813.968811 518.927734,812.168762 
z"/>
<path fill="#54B4E6" opacity="1.000000" stroke="none" 
	d="
M521.148071,827.028564 
	C521.300903,827.027283 521.559631,827.243225 521.853516,827.712646 
	C521.629333,827.768188 521.417786,827.528015 521.148071,827.028564 
z"/>
<path fill="#79D0E7" opacity="1.000000" stroke="none" 
	d="
M603.181946,801.825256 
	C610.763123,813.783569 610.640564,825.914185 605.630188,838.331726 
	C605.323975,839.090637 604.786377,839.759766 604.332520,840.455017 
	C599.889221,847.261353 595.012329,847.752441 589.462769,841.957214 
	C581.358093,833.493774 581.379150,810.461426 589.499146,802.006042 
	C594.647644,796.644958 597.384827,796.548828 603.181946,801.825256 
z"/>
<path fill="#48B0E4" opacity="1.000000" stroke="none" 
	d="
M547.531799,688.136719 
	C546.467041,692.273682 545.079529,696.534973 543.367126,700.959534 
	C544.431152,696.835510 545.820129,692.548279 547.531799,688.136719 
z"/>
</svg>