<?xml version="1.0" ?><!DOCTYPE svg  PUBLIC '-//W3C//DTD SVG 1.1//EN'  'http://www.w3.org/Graphics/SVG/1.1/DTD/svg11.dtd'><svg height="100px" style="enable-background:new 0 0 100 100;" version="1.1" viewBox="0 0 100 100" width="100px" xml:space="preserve" xmlns="http://www.w3.org/2000/svg" xmlns:xlink="http://www.w3.org/1999/xlink"><g id="Circle"/><g id="Skin"><g><path d="M23.697,86.967c-0.105,0-0.202-0.059-0.251-0.151c-0.05-0.094-0.043-0.208,0.018-0.295l0.102-0.146    c-0.001-0.001-0.002-0.002-0.003-0.004c-0.111-0.11-0.111-0.29,0-0.4c0.03-0.03,0.066-0.053,0.104-0.066    c0.22-0.173,1.142-1.143,1.544-1.566c0.509-0.536,0.509-0.536,0.637-0.536c0.047-0.008,0.148,0.029,0.201,0.083    c0.054,0.054,0.088,0.139,0.087,0.215c-0.001,0.106-0.003,0.246-1.137,1.363c0.071,0.108,0.061,0.254-0.033,0.352    c-1.104,1.151-1.119,1.151-1.266,1.153C23.699,86.967,23.698,86.967,23.697,86.967z" style="fill:#CCCCCC;"/><path d="M10.916,94.41c-0.076,0-0.16-0.034-0.213-0.088c-0.038-0.038-0.064-0.086-0.076-0.138l-0.48-2.14    c-0.378,0.377-0.99,0.997-1.411,1.428c-0.109,0.112-0.288,0.114-0.401,0.005c-0.112-0.11-0.114-0.289-0.004-0.401    c1.812-1.853,1.824-1.864,1.979-1.864c0.001,0,0.002,0,0.003,0c0.133,0,0.248,0.092,0.277,0.221l0.498,2.217    c0.281-0.253,0.737-0.704,1.278-1.259l2.42-2.552c0.06-0.062,0.139-0.09,0.222-0.088l0.691-0.69c0.11-0.111,0.29-0.111,0.4,0    c0.221,0.221,0.157,0.531-0.786,2.044l4.281-4.282c0.106-0.107,0.295-0.107,0.401,0c0.116,0.116,0.162,0.162-0.26,2.802    c0.94-0.916,2.866-2.889,4.147-4.217c0.107-0.11,0.282-0.115,0.394-0.014c0.114,0.103,0.125,0.276,0.026,0.394l-3.392,3.997    c1.37-1.412,2.88-3.008,4.049-4.263c0.054-0.058,0.113-0.091,0.208-0.09c0.075,0,0.147,0.029,0.201,0.083    c0.282,0.282,0.117,0.784-0.804,1.918c0.019,0.012,0.037,0.024,0.052,0.04c0.107,0.106,0.112,0.279,0.011,0.392l-0.747,0.825    c0.001,0.001,0.002,0.002,0.003,0.004c0.106,0.105,0.111,0.275,0.012,0.388c-0.173,0.196-0.349,0.398-0.521,0.598    c0.067,0.059,0.105,0.147,0.096,0.24l-0.165,1.778c0.017-0.018,0.033-0.035,0.049-0.052c0.782-0.84,0.825-0.868,0.983-0.871    c0.074,0.004,0.156,0.03,0.21,0.085c0.053,0.053,0.084,0.127,0.084,0.202c0,0.138,0,0.187-1.239,1.413    c-0.038,0.065-0.096,0.122-0.161,0.145c-0.011,0.003-0.023,0.007-0.035,0.009c-0.114,0.102-0.182,0.114-0.244,0.111    c-0.076,0-0.151-0.031-0.204-0.085c-0.059-0.06-0.088-0.142-0.081-0.226l0.147-1.586c-0.435,0.52-0.767,0.79-0.989,0.809    c-0.108,0.011-0.216-0.028-0.293-0.105c-0.047-0.047-0.088-0.088-0.098-0.153l-1.402,1.552c-0.104,0.115-0.281,0.123-0.398,0.022    c-0.023-0.021-0.043-0.045-0.058-0.071c-0.04,0.021-0.074,0.015-0.133,0.033c-0.075,0-0.147-0.029-0.201-0.083    c-0.229-0.229-0.222-0.28,1.123-1.686c-1.707,1.723-2.687,2.593-2.927,2.597c-0.071,0.006-0.171-0.035-0.226-0.09    c-0.104-0.104-0.111-0.271-0.016-0.384l2.285-2.692c-0.085,0.057-0.119,0.048-0.151,0.055c-0.075,0-0.15-0.03-0.203-0.083    c-0.065-0.064-0.095-0.156-0.08-0.247c0.147-0.902,0.298-1.884,0.388-2.534l-5.476,5.477c-0.053,0.054-0.125,0.083-0.201,0.083h0    c-0.075,0-0.147-0.03-0.201-0.083c-0.186-0.188-0.186-0.188,0.579-1.366c0.214-0.331,0.532-0.821,0.82-1.289l-2.053,2.052    c-1.702,1.75-1.877,1.753-1.984,1.755C10.919,94.41,10.917,94.41,10.916,94.41z" style="fill:#CCCCCC;"/><path d="M18.703,88.558c-0.067,0-0.135-0.023-0.188-0.071c-0.112-0.101-0.127-0.271-0.034-0.389    l2.662-3.351c-0.076,0.016-0.158-0.006-0.223-0.058c-0.113-0.089-0.141-0.249-0.064-0.371l4.724-7.588    c-2.678,2.955-6.462,6.974-7.265,6.999c-0.109,0.003-0.212-0.035-0.285-0.108c-0.018-0.018-0.034-0.038-0.046-0.06    c-0.006,0.001-0.009,0-0.012,0c-0.075,0-0.147-0.029-0.201-0.083c-0.178-0.178-0.683-0.684,5.646-8.972    c-0.435,0.496-0.879,1.011-1.296,1.494c-2.888,3.343-4.695,5.375-5.43,5.401c-0.164,0.022-0.271-0.064-0.33-0.124    c-0.208-0.208-0.441-0.442,7.502-10.629l-6.238,6.237c-0.106,0.106-0.276,0.11-0.387,0.013c-0.34,0.274-0.584,0.43-0.703,0.432    c-0.066-0.003-0.187-0.04-0.242-0.095c-0.103-0.104-0.111-0.268-0.018-0.381l10.548-12.792c-0.645,0.649-1.383,1.389-2.228,2.23    c-2.971,3.384-4.893,5.462-5.717,5.659c-0.388,0.383-0.789,0.776-1.202,1.183c-0.112,0.109-0.291,0.109-0.4-0.003    c-0.11-0.11-0.11-0.289,0-0.399l1.076-1.076c-0.004-0.077,0.023-0.156,0.082-0.215c3.253-3.282,8.182-8.382,9.767-10.313    c-1.757,1.435-6.114,6.072-9.967,10.437c-0.052,0.059-0.125,0.094-0.204,0.096c-0.078,0.003-0.153-0.026-0.209-0.083    c-0.056-0.056-0.113-0.112-0.01-0.386l-0.002-0.002c0.002-0.002,0.004-0.005,0.005-0.007c0.271-0.707,1.589-2.835,6.601-9.955    c-1.227,1.203-3.09,3.209-4.791,5.135c-0.098,0.112-0.263,0.128-0.383,0.039c-0.118-0.09-0.147-0.255-0.068-0.379l2.956-4.619    c-0.394,0.412-0.817,0.863-1.222,1.301c-0.105,0.115-0.285,0.123-0.4,0.016c-0.115-0.106-0.122-0.285-0.016-0.4    c2.795-3.024,2.989-3.028,3.13-3.031c0.088,0.003,0.162,0.032,0.216,0.087c0.094,0.095,0.11,0.241,0.038,0.353l-2.365,3.695    c1.807-1.959,3.674-3.85,4.16-3.865c0.087-0.003,0.204,0.043,0.259,0.1c0.098,0.098,0.111,0.251,0.031,0.364    c-1.896,2.682-4.552,6.499-6.189,8.968c3.146-3.49,8.127-8.844,9.105-8.874c0.136-0.025,0.221,0.036,0.296,0.111    c0.015,0.015,0.03,0.029,0.043,0.047c0.86-0.88,1.375-1.28,1.675-1.29c0.054-0.009,0.095,0.004,0.139,0.018    c0.102-0.049,0.226-0.033,0.313,0.046c0.112,0.102,0.125,0.273,0.028,0.391L21.159,71.823c1.93-1.949,4.036-3.949,5.049-4.902    c0.111-0.104,0.286-0.102,0.394,0.005c0.033,0.032,0.056,0.071,0.07,0.112l0.114-0.113c0.106-0.107,0.275-0.111,0.389-0.012    c0.112,0.1,0.127,0.27,0.034,0.388c-3.576,4.54-8.749,11.237-10.067,13.253c1.002-0.816,3.085-3.229,4.549-4.924    c2.679-3.101,3.737-4.274,4.231-4.292c0.065-0.014,0.218,0.048,0.273,0.104c0.102,0.102,0.111,0.263,0.023,0.375    c-2.892,3.685-5.915,7.764-7.267,9.917c2.381-2.685,6.525-7.214,7.405-7.244c0.108,0.003,0.218,0.036,0.292,0.11    c0.014,0.014,0.026,0.03,0.038,0.048c0.22-0.247,0.438-0.494,0.655-0.74c0.099-0.11,0.265-0.126,0.382-0.04    c0.118,0.088,0.149,0.252,0.071,0.377l-5.152,8.275l1.319-1.318c0.106-0.108,0.276-0.112,0.389-0.012    c0.112,0.101,0.127,0.271,0.034,0.389l-2.374,2.988l2.483-2.483c0.111-0.111,0.291-0.111,0.401,0c0.111,0.11,0.111,0.29,0,0.4    l-5.99,5.99C18.848,88.53,18.776,88.558,18.703,88.558z M24.665,76.473c-0.772,0.752-1.735,1.751-2.779,2.874    C22.918,78.296,23.9,77.283,24.665,76.473z" style="fill:#CCCCCC;"/><path d="M76.492,83.691c-0.072,0-0.146-0.027-0.2-0.083c-0.111-0.11-0.111-0.29,0-0.4L78,81.5    c0.07-0.071,0.174-0.095,0.261-0.077c0.091,0.005,0.268-0.014,0.384-0.025l1.014-1.014c0.109-0.111,0.291-0.111,0.4,0    c0.111,0.11,0.111,0.29,0,0.4l-1.085,1.085c-0.046,0.047-0.106,0.075-0.172,0.082c-0.227,0.022-0.381,0.036-0.49,0.038    l-1.619,1.619C76.638,83.664,76.564,83.691,76.492,83.691z" style="fill:#CCCCCC;"/><path d="M74.247,86.569c-0.112,0-0.214-0.066-0.26-0.169c-0.045-0.104-0.025-0.224,0.051-0.307    c0.373-0.404,0.752-0.825,1.114-1.236c-1.605,1.659-1.618,1.649-1.786,1.65c-0.075,0-0.15-0.03-0.203-0.084    c-0.155-0.154-0.198-0.198,1.158-1.828c-0.004-0.004-0.009-0.008-0.013-0.013c-0.111-0.11-0.111-0.29,0-0.4l2.307-2.307    c0.106-0.108,0.279-0.111,0.393-0.009c0.052,0.048,0.082,0.111,0.089,0.177c0.489-0.484,0.537-0.485,0.643-0.485    c0.078,0,0.153,0.03,0.207,0.085c0.08,0.08,0.178,0.178-0.001,0.554c0.537-0.54,1.066-1.072,1.54-1.55    c0.11-0.11,0.289-0.111,0.401-0.001c0.11,0.11,0.111,0.29,0.001,0.401c-3.676,3.701-4.888,4.921-5.334,5.323    c-0.032,0.035-0.065,0.071-0.098,0.107l-0.013-0.012C74.319,86.569,74.289,86.569,74.247,86.569L74.247,86.569z" style="fill:#CCCCCC;"/><path d="M59.618,91.139c-0.078,0-0.203-0.048-0.257-0.102c-0.104-0.104-0.111-0.27-0.018-0.382L68.61,79.55    c-2.092,1.884-6.191,6.272-9.858,10.429c-0.052,0.059-0.126,0.094-0.204,0.096c-0.074,0.001-0.154-0.027-0.209-0.083    c-0.068-0.067-0.148-0.189-0.146-0.386c0.002-0.113,0.038-0.251,0.106-0.411c-0.081,0.025-0.119-0.011-0.166-0.056    c-0.057-0.055-0.104-0.178-0.103-0.256c0.004-0.179,0.164-0.44,0.593-0.911c-0.019-0.01-0.035-0.021-0.051-0.035    c-0.112-0.097-0.131-0.265-0.041-0.384l4.781-6.396c-2.16,2.305-2.983,3.037-3.34,3.045c-0.105,0.002-0.196-0.044-0.251-0.099    c-0.106-0.105-0.111-0.275-0.013-0.388l3.872-4.394c-1.674,1.73-3.589,3.784-5.039,5.371c-0.101,0.107-0.265,0.121-0.382,0.033    c-0.117-0.09-0.146-0.254-0.065-0.378l4.882-7.583c-2.102,2.303-4.547,4.833-5.159,4.854c-0.088,0.002-0.221-0.049-0.275-0.104    c-0.105-0.104-0.111-0.273-0.014-0.386c2.958-3.404,5.964-7.252,6.337-8.342c-0.952,0.619-3.911,3.902-5.741,5.932    c-2.721,3.018-2.983,3.26-3.232,3.267c-0.083-0.008-0.167-0.033-0.221-0.088c-0.099-0.099-0.111-0.254-0.029-0.367    c1.604-2.207,3.695-5.215,4.728-6.909l-4.388,4.387c-0.109,0.111-0.291,0.111-0.4,0c-0.176-0.175-0.356-0.355,3.436-6.777    c-7.46,7.724-7.763,7.728-7.897,7.729c-0.058,0.001-0.157-0.031-0.211-0.085c-0.111-0.111-0.111-0.29,0-0.401    c0.039-0.038,0.085-0.063,0.134-0.075c0.643-0.435,5.86-5.78,9.267-9.325c0.1-0.104,0.263-0.116,0.376-0.029    c0.115,0.088,0.146,0.247,0.071,0.371c-1.291,2.158-3.151,5.344-4.099,7.116l4.406-4.405c0.105-0.107,0.295-0.107,0.4,0    c0.171,0.17,0.467,0.466-3.169,5.666c0.136-0.15,0.272-0.302,0.408-0.452c3.864-4.286,5.698-6.201,6.345-6.218    c0.114,0.002,0.214,0.035,0.288,0.11c0.498,0.498-0.927,2.767-4.24,6.755c1.389-1.417,3.187-3.377,4.854-5.278    c0.098-0.113,0.266-0.128,0.384-0.04c0.118,0.09,0.147,0.255,0.067,0.38l-5.058,7.855c2.913-3.128,6.291-6.616,6.878-6.63    c0.044,0.001,0.19,0.04,0.245,0.096c0.106,0.105,0.111,0.275,0.013,0.388l-1.256,1.425c0.257-0.259,0.3-0.26,0.39-0.262    c0.076,0.011,0.155,0.029,0.209,0.084c0.1,0.1,0.111,0.257,0.026,0.37l-5.502,7.36l7.548-7.547c0.053-0.054,0.125-0.083,0.2-0.083    l0,0c0.075,0,0.147,0.029,0.2,0.083c0.066,0.065,0.144,0.183,0.14,0.367c-0.003,0.201-0.124,0.474-0.35,0.812    c0.008,0.025,0.013,0.053,0.013,0.079c0.352-0.257,0.621-0.403,0.784-0.408c0.118-0.007,0.225,0.037,0.301,0.113    c0.104,0.104,0.111,0.27,0.018,0.382l-8.721,10.45c2.298-2.227,6.013-6.222,7.917-8.269c2.037-2.19,2.037-2.19,2.193-2.193    l0.006,0.284l-0.2,0.2l0.2-0.2l0.163,0.229c-0.111,0.094-0.962,1.008-1.947,2.067c-6.971,7.494-9.542,10.027-10.189,10.039    C59.62,91.139,59.619,91.139,59.618,91.139z M60.169,87.517c-0.115,0.133-0.223,0.258-0.321,0.376    c0.15-0.167,0.306-0.341,0.466-0.519C60.264,87.423,60.216,87.471,60.169,87.517z" style="fill:#CCCCCC;"/><path d="M49.006,95.978c-0.062,0-0.125-0.021-0.178-0.062c-0.116-0.094-0.14-0.262-0.054-0.384    c0.928-1.321,2.168-3.113,3.125-4.535c-2.413,2.669-3.208,3.421-3.601,3.432c-0.083,0.01-0.204-0.045-0.259-0.101    c-0.102-0.101-0.111-0.262-0.023-0.375l3.231-4.142c-0.33,0.349-0.665,0.705-0.989,1.054c-0.054,0.058-0.129,0.09-0.208,0.09    c-0.084,0.001-0.155-0.033-0.209-0.092c-0.145-0.157-0.073-0.275,0.085-0.535c0.811-1.333,1.321-2.223,1.642-2.817    c-2.746,2.784-2.771,2.784-2.916,2.784c0,0,0,0-0.001,0c-0.104,0-0.2-0.057-0.25-0.148c-0.05-0.092-0.045-0.204,0.013-0.291    l2.511-3.792l-0.63,0.631c-0.099,0.099-0.254,0.11-0.367,0.029c-0.113-0.082-0.149-0.233-0.086-0.357l1.845-3.643l-1.925,1.924    c-0.11,0.111-0.29,0.111-0.401,0c-0.125-0.125-0.102-0.198,0.012-0.549c0.022-0.068,0.056-0.173,0.094-0.292l-0.199,0.198    c-0.106,0.107-0.295,0.107-0.401,0c-0.441-0.44,0.842-2.479,2.902-5.169c-1.1,1.034-1.99,1.729-2.414,1.747    c-0.143-0.003-0.253-0.045-0.321-0.099l-1.623,1.623c-0.106,0.107-0.295,0.107-0.401,0c-0.054-0.054-0.097-0.164-0.096-0.239    c0.002-0.242,0.37-0.725,1.395-1.776c-0.063-0.076-0.064-0.142,0.064-0.334l-0.006-0.006l0.032-0.031    c0.1-0.145,0.263-0.353,0.511-0.67c5.054-6.448,7.445-9.713,8.537-11.347c-8.358,8.67-8.685,8.673-8.829,8.674    c-0.001,0-0.002,0-0.002,0c-0.076,0-0.157-0.032-0.21-0.086c-0.105-0.105-0.201-0.201,0.517-1.175    c-2.023,2.044-3.724,3.599-4.225,3.612c-0.111,0.025-0.212-0.035-0.286-0.108c-0.013-0.013-0.026-0.025-0.037-0.04    c-0.257,0.18-0.458,0.271-0.61,0.275c-0.14,0.029-0.237-0.039-0.318-0.12c-0.195-0.195-0.133-0.261,0.349-0.771    c3.246-3.436,5.432-5.828,6.903-7.494c-5.91,6.117-6.248,6.121-6.371,6.123c-0.093-0.009-0.163-0.034-0.217-0.088    c-0.106-0.105-0.111-0.275-0.012-0.388l3.187-3.614c-3.566,3.597-4.675,4.619-5.059,4.909c-0.007,0.008-0.014,0.016-0.021,0.023    L42.2,77.432c-0.133,0.097-0.161,0.107-0.199,0.097c-0.075,0-0.152-0.031-0.206-0.085c-0.107-0.107-0.111-0.28-0.008-0.393    c6.426-6.969,13.1-14.77,14.509-17.351c-4.578,4.885-13.676,14.468-14.595,14.483c-0.098-0.011-0.188-0.041-0.242-0.096    c-0.102-0.102-0.111-0.265-0.021-0.377l9.412-11.768c-0.119,0.121-0.238,0.242-0.359,0.364c-4.511,4.718-9.638,9.927-10.295,9.938    c-0.015-0.002-0.019-0.001-0.028-0.001c-0.856,0.767-1.456,1.184-1.769,1.19c-0.129-0.004-0.258-0.062-0.315-0.12    c-0.032-0.032-0.06-0.084-0.077-0.136l-0.402,0.401c-0.077,0.078-0.186,0.103-0.286,0.07l-0.157,0.156    c-0.101,0.102-0.261,0.112-0.373,0.024c-0.113-0.086-0.144-0.242-0.073-0.366l4.365-7.592c-1.501,1.465-4.122,4.197-5.897,6.085    c-0.054,0.057-0.133,0.077-0.207,0.089c-0.075,0-0.147-0.029-0.201-0.083c-0.06-0.06-0.103-0.103,0.037-0.354l-0.042-0.04    c0.064-0.068,0.127-0.135,0.19-0.202c0.325-0.5,1.047-1.478,2.551-3.468c-0.995,0.998-1.774,1.684-2.046,1.691    c-0.083,0.034-0.192-0.04-0.248-0.096c-0.09-0.09-0.109-0.229-0.047-0.339l3.346-5.943c-0.709,0.578-1.913,1.822-3.237,3.299    l-2.546,2.95c-0.102,0.117-0.279,0.132-0.397,0.03c-0.119-0.101-0.134-0.277-0.035-0.397c0.305-0.366,0.774-0.926,1.329-1.569    c-0.358,0.358-0.695,0.695-0.995,0.996c-0.106,0.107-0.295,0.107-0.401,0c-0.242-0.242-0.242-0.242,1.962-2.997    c0.099-0.123,0.202-0.252,0.308-0.385c-1.99,2.205-2.833,3.021-3.252,3.032c-0.084-0.009-0.216-0.049-0.271-0.104    c-0.155-0.154-0.155-0.154,0.418-1.194c0.441-0.801,1.391-2.525,1.954-3.63c-0.884,0.864-2.335,2.384-3.646,3.799    c-0.053,0.058-0.099,0.096-0.208,0.091c-0.075,0-0.147-0.029-0.2-0.083c-0.308-0.307-0.046-0.787,2.15-3.957    c0.476-0.688,1.04-1.5,1.491-2.191c-0.048,0.052-0.098,0.104-0.147,0.157c-5.811,6.192-7.027,7.285-7.434,7.292    c-0.07-0.001-0.182-0.039-0.236-0.094c-0.11-0.11-0.11-0.29,0-0.4c0.06-0.06,0.13-0.087,0.217-0.083    c0.737-0.386,5.14-5.078,7.04-7.103c1.495-1.594,1.495-1.594,1.638-1.596c0.084,0.018,0.151,0.028,0.205,0.083    c0.327,0.326,0.003,0.923-2.308,4.258c-0.353,0.508-0.756,1.091-1.118,1.63c2.883-3.048,3.126-3.053,3.252-3.055    c0.09-0.008,0.166,0.033,0.221,0.088c0.21,0.209,0.268,0.268-2.29,4.914c0.849-0.822,2.154-2.284,3.039-3.277    c1.944-2.179,2.122-2.338,2.35-2.345c0.089,0,0.167,0.032,0.222,0.088c0.243,0.243,0.314,0.314-2.3,3.604l2.539-2.54    c0.449-0.448,0.735-0.734,0.926-0.906l0.097-0.113l0.017,0.015c0.236-0.192,0.286-0.144,0.398-0.029    c0.105,0.104,0.111,0.273,0.014,0.386l-0.403,0.467c0.065-0.024,0.123-0.039,0.174-0.041c0.125,0.003,0.241,0.036,0.324,0.119    c0.09,0.09,0.109,0.229,0.046,0.339l-3.109,5.522c1.099-1.051,2.962-3.038,4.651-4.933c0.101-0.113,0.274-0.129,0.392-0.03    c0.118,0.097,0.138,0.269,0.045,0.391c-1.008,1.327-2.232,2.942-3.325,4.388c3.652-3.775,3.925-3.779,4.042-3.781    c0.001,0,0.002,0,0.003,0c0.076,0,0.163,0.034,0.216,0.088c0.09,0.091,0.109,0.23,0.045,0.342l-4.111,7.15L56.077,54.09    c0.109-0.111,0.289-0.11,0.4-0.001c0.11,0.11,0.111,0.289,0.001,0.4l-0.44,0.446c0.044-0.016,0.098-0.021,0.112-0.022    c0.077,0,0.186,0.042,0.239,0.096c0.054,0.053,0.116,0.147,0.114,0.297c-0.004,0.235-0.301,0.715-0.813,1.368    c0.007,0.07-0.014,0.144-0.061,0.202L43.447,72.107c3.028-2.875,9.083-9.208,13.131-13.537c0.055-0.058,0.129-0.103,0.207-0.09    c0.075,0,0.147,0.029,0.2,0.083c0.822,0.822-3.702,6.433-8.564,11.976c2.011-2.039,4.164-4.238,5.958-6.081    c0.107-0.109,0.284-0.115,0.396-0.01c0.113,0.104,0.122,0.28,0.021,0.396l-5.618,6.37c1.572-1.612,3.244-3.354,4.577-4.754    c0.054-0.056,0.153-0.092,0.205-0.088c0.075,0,0.147,0.029,0.2,0.083c0.122,0.121,0.257,0.255-0.374,1.16    c1.16-1.222,1.833-1.793,2.185-1.805c0.109-0.006,0.217,0.036,0.291,0.111c0.11,0.109,0.111,0.287,0.003,0.398    c-2.569,2.633-5.901,6.092-8.298,8.655c-0.661,0.734-1.238,1.362-1.737,1.884c-0.163,0.18-0.312,0.348-0.449,0.503    c2.148-1.896,6.818-6.843,10.998-11.509c0.104-0.116,0.281-0.126,0.399-0.022c0.116,0.104,0.128,0.281,0.024,0.398    c-1.933,2.202-4.604,5.29-6.396,7.441c2.108-2.102,5.231-5.315,7.558-7.737c0.054-0.056,0.138-0.066,0.204-0.087    c0.075,0,0.147,0.029,0.2,0.083c0.244,0.244,0.514,0.516-4.742,7.436c1.767-1.916,3.511-3.591,4.238-3.629    c0.038,0,0.077-0.001,0.113,0.005l2.07-2.07c0.109-0.111,0.289-0.111,0.4,0c0.111,0.11,0.111,0.29,0,0.4l-0.004,0.005    l-0.882,0.884c0.046,0.013,0.088,0.038,0.122,0.072c0.056,0.055,0.092,0.15,0.09,0.228c-0.002,0.065-0.023,0.136-0.091,0.237    c0.049,0.099,0.038,0.221-0.038,0.31c-0.43,0.508-1.354,1.591-2.492,2.883c-3.624,4.254-6.881,8.361-7.913,10.143l0.151-0.151    c0.111-0.111,0.291-0.111,0.401,0c0.112,0.111,0.139,0.206-0.017,0.753l2.368-2.367c0.1-0.098,0.255-0.109,0.366-0.029    c0.113,0.082,0.149,0.233,0.087,0.357l-1.844,3.642l1.369-1.369c0.103-0.103,0.268-0.111,0.38-0.02    c0.112,0.093,0.137,0.255,0.057,0.376l-2.553,3.855c0.596-0.601,1.235-1.247,1.765-1.786c0.053-0.054,0.126-0.084,0.201-0.084    h0.001c0.075,0,0.147,0.029,0.2,0.083c0.167,0.166,0.305,0.305-0.961,2.513c2.148-2.239,2.338-2.243,2.448-2.245    c0.002,0,0.004,0,0.005,0c0.076,0,0.159,0.033,0.212,0.087c0.102,0.101,0.111,0.262,0.023,0.375l-3.805,4.878    c0.511-0.555,1.015-1.115,1.404-1.547c1.519-1.689,1.533-1.689,1.713-1.694c0.086,0.003,0.158,0.029,0.213,0.085    c0.17,0.17,0.278,0.277-2.302,4.035c0.023-0.025,0.048-0.051,0.071-0.076c0.427-0.521,1.093-1.197,1.815-1.888    c1.557-1.586,2.782-2.728,3.086-2.734c0.073-0.01,0.181,0.038,0.235,0.093c0.055,0.056,0.085,0.132,0.082,0.21    c-0.003,0.079-0.038,0.152-0.098,0.204c-0.549,0.477-1.104,0.972-1.638,1.457c0.051,0.093,0.048,0.209-0.016,0.3l-1.085,1.56    c1.076-1.087,2.512-2.604,3.835-4.04c0.053-0.058,0.124-0.102,0.208-0.091c0.075,0,0.147,0.029,0.2,0.083    c0.068,0.068,0.11,0.11-0.023,0.362l0.031,0.03c-0.044,0.048-0.088,0.096-0.132,0.144c-0.298,0.487-1.014,1.491-2.581,3.688    c1.015-1.021,2.194-2.218,3.14-3.18c0.096-0.099,0.248-0.113,0.361-0.036c0.113,0.076,0.155,0.224,0.101,0.349l-2.467,5.588    l1.354-1.354c1.017-2.471,9.41-9.918,12.386-12.508c0.067-0.077,0.135-0.155,0.202-0.232c0.045-0.051,0.106-0.085,0.174-0.094    c0.243-0.211,0.427-0.369,0.539-0.465c0.116-0.1,0.289-0.091,0.393,0.022c0.002,0.002,0.004,0.005,0.007,0.007    c0.054-0.02,0.088-0.042,0.143-0.029c0.078,0,0.209,0.05,0.263,0.104c0.104,0.103,0.111,0.267,0.02,0.379    c-3.74,4.586-7.67,9.67-9.179,12.018c8.795-9.049,8.998-8.971,9.133-8.988c0.075,0,0.152,0.031,0.205,0.085    c0.209,0.209,0.241,0.24-5.411,8.48c3.834-4.042,7.622-7.896,8.139-7.903c0.002,0,0.003,0,0.004,0    c0.076,0,0.173,0.037,0.226,0.091c0.109,0.109,0.111,0.285,0.004,0.396l-0.442,0.461c0.109,0.105,0.115,0.279,0.014,0.393    c-0.77,0.854-1.829,2.021-2.979,3.263c-1.837,2.066-3.438,3.98-4.294,5.18l12.338-12.337c0.103-0.104,0.27-0.112,0.382-0.018    c0.112,0.094,0.135,0.259,0.052,0.379c-2.119,3.064-5.338,7.864-6.231,9.533c1.722-1.373,6.99-6.984,10.302-10.639    c0.052-0.058,0.125-0.091,0.203-0.093c0.075-0.002,0.153,0.028,0.207,0.083c0.062,0.061,0.103,0.102-0.035,0.35l0.045,0.041    c-0.07,0.078-0.144,0.158-0.219,0.241c-0.46,0.698-1.64,2.273-4.448,6.019c-0.821,1.096-1.643,2.19-2.364,3.152    c2.696-2.695,6.771-6.782,9.352-9.375c0.054-0.053,0.126-0.083,0.201-0.083l0,0c0.075,0,0.147,0.029,0.2,0.083    c0.301,0.301,0.18,0.722-4.085,5.515l5.105-5.104c0.109-0.111,0.291-0.111,0.4,0c0.173,0.173,0.46,0.459-4.385,6.056    c1.671-1.683,3.412-3.439,4.896-4.939c0.053-0.054,0.125-0.084,0.2-0.084h0.001c0.075,0,0.146,0.029,0.2,0.082    c0.283,0.283,0.334,0.334-4.32,5.927c-0.868,1.044-1.8,2.163-2.482,3.011c0.66-0.714,1.446-1.652,2.02-2.336    c1.776-2.12,2.309-2.697,2.671-2.713c0.049-0.006,0.208,0.044,0.264,0.101c0.105,0.104,0.243,0.243-0.349,1.087    c0.033,0.006,0.066,0.017,0.097,0.034c0.111,0.063,0.166,0.193,0.134,0.316c-0.244,0.947-0.585,2.294-0.798,3.177l0.142-0.142    c0.109-0.111,0.291-0.111,0.4,0c0.111,0.11,0.111,0.29,0,0.4l-0.82,0.82c-0.053,0.054-0.125,0.083-0.2,0.083h-0.001    c-0.076,0-0.148-0.03-0.201-0.085c-0.136-0.139-0.158-0.16,0.671-3.391l-5.291,5.292c-0.109,0.111-0.288,0.109-0.399,0.002    c-0.11-0.109-0.112-0.288-0.004-0.399c0.215-0.222,0.432-0.445,0.647-0.669c-0.046,0.014-0.089,0.021-0.13,0.022    c-0.142-0.003-0.241-0.038-0.325-0.122c-0.267-0.266-0.282-0.281,3.521-4.852c0.568-0.683,1.205-1.448,1.811-2.184    c-5.452,5.513-7.501,7.566-8.33,8.272c-0.079,0.086-0.159,0.174-0.238,0.262l-0.044-0.039c-0.242,0.168-0.295,0.12-0.365,0.051    c-0.108-0.107-0.113-0.28-0.011-0.393c2.696-2.966,6.493-7.245,8.723-9.948l-9.458,9.457c-0.109,0.111-0.291,0.111-0.4,0    c-0.095-0.094-0.152-0.152,0.002-0.398l-0.002-0.002l0.008-0.008c0.256-0.404,1.068-1.302,3.169-3.625    c1.361-1.505,3.203-3.542,4.67-5.231c-6.756,6.783-8.589,8.617-9.146,9.112c-0.034,0.047-0.053,0.07-0.053,0.07l-0.015-0.011    c-0.146,0.124-0.175,0.124-0.212,0.124l0,0c-0.107,0-0.205-0.061-0.254-0.156c-0.048-0.097-0.037-0.211,0.027-0.297    c1.669-2.222,4.136-5.509,6.121-8.159c-3.167,3.39-6.777,7.088-7.465,7.104c-0.089,0.007-0.209-0.047-0.263-0.102    c-0.188-0.188-0.463-0.462,4.729-8.087L66.84,95.41c-0.109,0.111-0.291,0.111-0.4,0c-0.208-0.207-0.011-0.772,0.587-1.69    c-1.253,1.218-2.228,2.05-2.558,2.059c-0.083-0.002-0.21-0.048-0.265-0.103c-0.109-0.109-0.111-0.285-0.004-0.396l0.169-0.176    c-0.104-0.095-0.123-0.252-0.042-0.369c2.026-2.951,4.776-6.977,6.32-9.282c-2.065,2.036-5.733,5.781-8.392,8.522    c-0.053,0.056-0.13,0.091-0.203,0.086c-0.075,0-0.147-0.029-0.2-0.083c-0.17-0.17-0.628-0.629,5.297-8.231    c-1.221,1.221-2.604,2.54-3.975,3.813c-3.162,3.347-6.231,6.339-7.123,6.37c-0.178-0.001-0.292-0.067-0.354-0.131    c-0.083-0.082-0.106-0.208-0.06-0.314l2.331-5.28c-4.339,4.409-4.399,4.409-4.544,4.41h-0.001c-0.075,0-0.148-0.03-0.201-0.084    c-0.082-0.082-0.126-0.125,0.052-0.429l-0.005-0.008c0.005-0.003,0.011-0.008,0.018-0.014c0.205-0.345,0.679-1.01,1.66-2.385    c0.147-0.206,0.302-0.422,0.459-0.643c-2.613,2.714-2.887,2.72-2.992,2.722c-0.047-0.001-0.172-0.035-0.227-0.09    c-0.097-0.098-0.109-0.25-0.031-0.362l0.62-0.891c-0.422,0.422-0.831,0.831-1.157,1.157c-0.053,0.054-0.125,0.083-0.2,0.083l0,0    c-0.042,0-0.082-0.009-0.119-0.026c-0.744,0.791-1.465,1.566-2.085,2.24C49.159,95.946,49.083,95.978,49.006,95.978z     M56.521,72.995l-6.928,6.928C50.592,79.376,53.44,76.451,56.521,72.995z M42.107,69.077c-1.501,1.564-2.655,2.817-3.207,3.513    c1.67-1.231,6.307-6.292,9.674-9.98L42.107,69.077z M55.517,56.029c-1.244,1.18-3.828,4.011-6.166,6.572    c-0.146,0.16-0.291,0.318-0.435,0.476c0.382-0.381,0.758-0.758,1.125-1.128c1.583-1.651,3.153-3.307,4.537-4.779    C54.969,56.723,55.287,56.338,55.517,56.029z" style="fill:#CCCCCC;"/><path d="M43.402,64.942c-0.187,0-0.306-0.078-0.374-0.146c-0.109-0.108-0.111-0.283-0.006-0.396    c2.518-2.659,5.827-6.216,8.453-9.136c-3.709,3.823-5.746,5.757-6.068,5.761c-0.069,0.012-0.167-0.034-0.221-0.089    c-0.072-0.071-0.11-0.171-0.108-0.28c0.002-0.112,0.081-0.287,0.226-0.515c-0.025-0.088-0.007-0.186,0.056-0.261l7.688-9.123    c-1.439,1.462-3.205,3.33-4.71,4.954l-1.073,1.165c-0.107,0.115-0.285,0.121-0.4,0.017c-0.115-0.106-0.123-0.285-0.017-0.4    c0.462-0.505,0.975-1.062,1.514-1.643l2.248-2.438c-1.174,1.246-2.329,2.49-3.302,3.554c-0.052,0.057-0.125,0.09-0.203,0.092    c-0.068,0.004-0.152-0.028-0.207-0.083c-0.283-0.283-0.312-0.312,5.608-7.053c0.93-1.059,1.915-2.18,2.736-3.127    c-1.369,1.284-2.891,2.734-4.296,4.107c-1.604,1.726-3.336,3.651-4.981,5.531c-0.052,0.06-0.125,0.094-0.204,0.097    c-0.073,0.002-0.154-0.027-0.209-0.083c-0.034-0.033-0.065-0.096-0.084-0.157c-0.001-0.001-0.002-0.002-0.004-0.003    c-0.117-0.102-0.13-0.277-0.031-0.396l6.17-7.354c-0.461,0.453-0.927,0.905-1.384,1.345c-2.584,2.615-4.559,4.5-4.882,4.504    c-0.075,0.015-0.168-0.035-0.223-0.09c-0.055-0.055-0.085-0.129-0.083-0.206c0.001-0.078,0.035-0.151,0.092-0.203    c0.407-0.372,0.815-0.749,1.224-1.128c-0.069-0.003-0.137-0.03-0.189-0.083c-0.208-0.207-0.573-0.574,7.707-9.691    c-1.812,1.865-4.057,4.296-6.14,6.633c-0.103,0.117-0.283,0.127-0.399,0.023c-0.117-0.104-0.128-0.282-0.024-0.399l2.513-2.849    c-0.626,0.621-0.958,0.94-1.143,1.105l-0.05,0.064l-0.013-0.01c-0.142,0.12-0.171,0.12-0.211,0.12h0    c-0.108,0-0.207-0.062-0.254-0.159c-0.048-0.097-0.036-0.213,0.03-0.298l3.952-5.117c-3.018,3.147-5.688,5.803-6.116,5.81    c-0.09,0.013-0.175-0.037-0.229-0.091c-0.06-0.06-0.131-0.167-0.13-0.339c0.004-0.429,0.673-1.373,1.642-2.518    c-0.109-0.147-0.006-0.25,0.574-0.825c0.836-0.83,1.592-1.59,2.273-2.286c0.267-0.277,0.534-0.551,0.796-0.818    c3.945-4.081,5.079-5.697,5.374-6.334c-1.313,1.134-5.476,5.472-8.105,8.279c-0.104,0.11-0.276,0.12-0.391,0.021    c-0.115-0.098-0.133-0.27-0.04-0.389c3.196-4.115,6.447-8.65,7.438-10.531l-8.456,8.456c-0.106,0.106-0.295,0.106-0.401,0    c-0.096-0.096-0.157-0.156,0.002-0.398l-0.003-0.002l0.014-0.014c0.143-0.211,0.446-0.555,1.021-1.161    c0,0-0.001-0.001-0.001-0.001c-0.229-0.229-0.229-0.229,1.766-2.722c1.736-2.169,6.172-7.709,6.443-9.08    c-0.601,0.49-2.062,2.125-3.168,3.362c-2.403,2.688-3.106,3.418-3.473,3.428c-0.083,0.009-0.19-0.04-0.245-0.096    c-0.084-0.084-0.201-0.2,0.09-0.722c-0.062,0.03-0.114,0.042-0.161,0.044c-0.082-0.008-0.184-0.039-0.239-0.093    c-0.078-0.078-0.101-0.189-0.07-0.287c-0.072,0.048-0.099,0.049-0.126,0.049h0c-0.076,0-0.15-0.031-0.203-0.084    c-0.105-0.106-0.11-0.276-0.011-0.388c3.097-3.493,6.272-7.331,7.58-9.254l-4.771,4.771c-0.105,0.106-0.295,0.106-0.401,0    c-0.257-0.257-0.167-0.709,1.565-2.966c-2.828,2.875-3.065,2.879-3.173,2.88c-0.058-0.002-0.165-0.033-0.219-0.087    c-0.056-0.056-0.121-0.154-0.119-0.31c0.007-0.453,0.965-1.644,2.258-3.048c2.26-2.715,4.501-5.642,5.533-7.305    c-1.157,1.346-2.504,2.78-3.008,2.805c-0.102,0.005-0.215-0.033-0.29-0.108c-0.185-0.185-0.375-0.375,4.373-7.24    c-3.298,3.506-7.023,7.326-7.605,7.338c-0.067-0.005-0.186-0.04-0.241-0.095c-0.11-0.11-0.11-0.289-0.001-0.399l0.269-0.272    c-0.125-0.46,0.395-1.42,1.293-2.646c-0.029,0.004-0.058,0.006-0.081,0.006c-0.164,0-0.269-0.07-0.328-0.13    c-0.098-0.098-0.111-0.251-0.031-0.364c0.411-0.582,0.898-1.273,1.359-1.928c-0.518,0.536-1.081,1.125-1.616,1.693    c-0.107,0.114-0.287,0.119-0.4,0.012c-0.114-0.107-0.119-0.287-0.012-0.4c3.563-3.78,3.744-3.783,3.89-3.785    c0.049,0.008,0.157,0.031,0.211,0.085c0.174,0.178,0.185,0.189-2.427,3.884c0.121-0.093,0.264-0.21,0.431-0.355    c2.159-2.66,5.4-6.03,7.778-8.426l0.004,0.003c0.084-0.083,0.115-0.084,0.187-0.087c0.091,0.002,0.224,0.062,0.271,0.169    c0.047,0.107,0.023,0.231-0.059,0.314c-0.002,0.002-0.003,0.003-0.005,0.005c-0.034,0.037-0.143,0.164-0.312,0.362    c-3.996,4.672-6.178,6.933-7.413,8.009c-0.949,1.144-1.657,2.085-2.002,2.698L61.77,5.906c0.109-0.11,0.289-0.11,0.4,0    c0.11,0.11,0.111,0.29,0.001,0.4l-2.036,2.061c0.001,0.058-0.016,0.117-0.051,0.167c-2.074,2.951-5.192,7.489-6.279,9.291    c0.751-0.704,1.987-2.092,3.037-3.375c0.051-0.062,0.126-0.1,0.206-0.104c0.066-0.001,0.158,0.025,0.214,0.083    c0.413,0.413-0.471,2.066-2.631,4.931c1.201-1.171,2.23-2.143,2.69-2.573c0.109-0.104,0.286-0.101,0.394,0.006    c0.108,0.108,0.111,0.283,0.007,0.395c-0.532,0.567-1.022,1.088-1.476,1.566c0.075,0,0.146,0.031,0.199,0.084    c0.104,0.105,0.152,0.154,0,0.389l0.005,0.005c-0.01,0.011-0.02,0.021-0.029,0.032c-0.142,0.208-0.422,0.548-0.919,1.152    c-0.84,1.02-2.609,3.17-3.706,4.668l4.441-4.441c0.105-0.106,0.295-0.106,0.4,0c0.168,0.167,0.604,0.604-3.68,5.813    c1.371-1.385,2.816-2.853,4.033-4.092c0.053-0.054,0.125-0.084,0.201-0.085h0.001c0.075,0,0.147,0.03,0.201,0.083    c0.071,0.072,0.13,0.13-0.018,0.381l0.019,0.018c-0.027,0.027-0.055,0.056-0.082,0.083c-0.013,0.019-0.025,0.038-0.039,0.058    c0.075,0.013,0.144,0.048,0.197,0.102c0.111,0.11,0.111,0.29,0.001,0.4c-0.84,0.841-1.692,1.71-2.517,2.563    c0.395-0.366,0.629-0.509,0.795-0.514c0.066-0.008,0.199,0.043,0.254,0.098c0.683,0.683-0.875,3.121-6.41,10.035    c-0.13,0.163-0.259,0.324-0.385,0.481c0.264-0.271,0.55-0.565,0.86-0.884c0.779-0.8,1.681-1.726,2.473-2.549    c0.687-0.751,1.389-1.534,2.069-2.307c0.052-0.059,0.126-0.093,0.204-0.096c0.09,0.011,0.153,0.028,0.209,0.083    c0.026,0.026,0.05,0.049,0.067,0.075l0.458-0.458c0.105-0.106,0.295-0.106,0.4,0c0.476,0.476-1.061,3.117-4.574,7.867    c3.144-3.269,4.893-4.923,5.214-4.928c0.088,0.006,0.17,0.036,0.224,0.09c0.069,0.069,0.151,0.193,0.151,0.394    c-0.002,0.547-0.741,1.675-2.273,3.451c0.026,0.044,0.041,0.096,0.04,0.148c0,0.076-0.032,0.149-0.087,0.202    c-0.154,0.148-0.309,0.297-0.463,0.446c-0.303,0.333-0.731,0.821-1.151,1.299c-2.705,3.08-4.321,4.816-5.106,5.18    c-0.692,0.794-1.214,1.449-1.49,1.889c1.587-1.391,6.226-6.235,9.18-9.395c0.104-0.111,0.276-0.121,0.391-0.022    c0.115,0.098,0.133,0.27,0.041,0.389l-4.776,6.184c1.679-1.682,3.629-3.642,4.694-4.712c0.108-0.109,0.284-0.112,0.395-0.007    c0.106,0.1,0.119,0.262,0.034,0.376c0.464-0.381,0.812-0.606,0.991-0.611c0.104,0.01,0.205,0.035,0.276,0.105    c0.107,0.108,0.111,0.281,0.008,0.393c-2.786,3.015-6.696,7.345-9.04,10.13l8.035-8.035c0.109-0.11,0.291-0.11,0.4,0    c0.027,0.028,0.058,0.065,0.08,0.115c0.115-0.122,0.229-0.241,0.341-0.359c0.105-0.111,0.281-0.119,0.395-0.016    c0.114,0.102,0.127,0.276,0.028,0.394l-5.24,6.247c1.021-1.027,1.942-1.905,2.609-2.449c0.94-0.853,1.667-1.398,1.998-1.409    c0.148-0.008,0.259,0.061,0.315,0.118c0.251,0.251,0.271,0.273-3.538,4.612c1.578-1.574,2.844-2.721,3.185-2.729    c0.052,0.007,0.193,0.043,0.248,0.097c0.107,0.107,0.111,0.281,0.008,0.393l-1.758,1.908c0.075,0.004,0.173,0.043,0.224,0.094    c0.104,0.104,0.111,0.271,0.017,0.383l-4.624,5.486c2.007-1.96,3.978-3.812,5.02-4.783c0.113-0.105,0.289-0.101,0.397,0.011    c0.107,0.111,0.105,0.288-0.004,0.397l-0.495,0.496c0.016,0.011,0.031,0.023,0.045,0.037c0.23,0.229,0.653,0.655-12.172,14.234    c1.904-1.396,6.777-6.686,11.129-11.889c0.103-0.12,0.281-0.135,0.399-0.036c0.12,0.101,0.136,0.279,0.036,0.399    c-1.057,1.263-10.378,12.341-12.274,12.425C43.422,64.942,43.412,64.942,43.402,64.942z M52.168,46.065l-3.763,3.762    c0.423-0.401,0.84-0.799,1.25-1.193C50.45,47.828,51.302,46.957,52.168,46.065z M53.18,27.833    c-1.175,1.25-2.202,2.383-2.924,3.239c0.562-0.605,1.203-1.322,1.749-1.933C52.447,28.645,52.836,28.212,53.18,27.833z     M50.807,24.083c-0.47,0.516-0.866,0.97-1.165,1.341c0.538-0.517,1.252-1.233,2.039-2.037    C51.139,23.885,50.915,24.037,50.807,24.083z" style="fill:#CCCCCC;"/></g></g><g id="Your_Icon"><path d="M89.354,85.842c-0.365-1.654-1.678-3.111-2.225-3.66c-0.729-0.732-3.229-1.508-4.154-1.508   c-0.08,0-0.151,0.006-0.216,0.014c-0.448,0.064-0.829,0.299-1.166,0.504c-0.258,0.16-0.526,0.324-0.72,0.324   c-0.275-0.012-0.385-0.043-0.598-0.104c-0.168-0.05-0.375-0.108-0.717-0.177c-0.344-0.069-1.352-0.438-1.711-0.574   c-0.154-0.059-0.33-0.034-0.464,0.062c-0.135,0.098-0.211,0.26-0.2,0.426c0.021,0.389-0.037,0.858-0.05,0.922   c-0.102,0.039-0.254,0.115-0.432,0.203c-0.339,0.172-0.97,0.486-1.261,0.488c-0.909,0.006-1.698,0.631-1.836,1.452   c-0.065,0.399,0.051,0.996,0.181,1.492c-0.101-0.052-0.199-0.116-0.282-0.199l-1.561-1.562c-0.23-0.229-0.398-1.069-0.521-1.682   c-0.092-0.457-0.177-0.886-0.296-1.246c-0.29-0.867-1.181-1.72-2.04-2.545c-0.197-0.189-0.393-0.377-0.574-0.56   c-0.488-0.487-1.179-1.265-1.846-2.015c-0.587-0.659-1.139-1.28-1.482-1.625c-0.593-0.594-2.36-2.045-3.651-3.104l-0.817-0.671   c-0.418-0.348-1.09-1.062-1.802-1.821c-0.938-0.997-1.907-2.03-2.531-2.467c-0.628-0.44-0.657-1.231-0.688-2.071   c-0.008-0.238-0.019-0.474-0.039-0.695c-0.073-0.744,0.545-5.916,0.843-8.402c0.099-0.826,0.173-1.449,0.196-1.689   c0.111-1.099,0.328-7.583,0.369-8.873c0.043-1.324-0.14-2.637-0.271-3.596c-0.039-0.278-0.074-0.528-0.098-0.739   c-0.034-0.304-0.121-0.811-0.225-1.407c-0.207-1.204-0.49-2.854-0.474-3.729c0.008-0.405,0.056-1.355,0.116-2.532   c0.143-2.849,0.339-6.752,0.244-8.018c-0.084-1.128-0.047-2.471-0.02-3.45c0.018-0.555,0.029-1.018,0.02-1.313   c-0.022-0.684,0.662-3.265,1.043-4.404c0.353-1.055,0.953-2.623,1.442-3.57c0.509-0.985,1.499-2.529,1.957-3.16   c0.479-0.66,1.015-2.037,0.933-2.644c-0.112-0.822-1.344-1.098-2.069-0.807c-0.415,0.167-0.829,0.621-1.271,1.102   c-0.25,0.274-0.51,0.558-0.734,0.746c-0.383,0.319-1.062,0.81-1.721,1.285c-0.384,0.278-0.761,0.55-1.066,0.78   c-0.389,0.291-1.03,0.861-1.71,1.464c-0.779,0.691-1.661,1.475-2.066,1.743c-0.417,0.276-1.785,1.277-1.904,2.548   c-0.067,0.718,0.615,1.487,1.336,2.3c0.354,0.4,0.723,0.814,0.849,1.079c0.265,0.553-0.356,2.339-0.665,2.618   c-0.607,0.456-1.298,2.364-1.495,2.938c-0.171,0.5-0.331,2.099-0.554,4.482c-0.123,1.312-0.239,2.552-0.322,2.966   c-0.218,1.09-1.049,8.399-1.049,10.184c0,0.998-0.354,4.45-0.64,7.224c-0.249,2.417-0.401,3.92-0.401,4.32   c0,0.846-1.025,6.315-1.42,7.305c-0.299,0.748-0.816,1.932-1.079,2.525c-0.918-0.207-3.213-0.742-4.331-1.143   c-0.908-0.325-1.849-0.456-2.68-0.572c-0.555-0.078-1.079-0.15-1.517-0.271c-0.762-0.207-2.204-0.359-3.6-0.508   c-0.762-0.08-1.476-0.156-1.967-0.23c-0.727-0.11-2.013-0.18-3.442-0.18c-0.867,0-1.649,0.027-2.089,0.072   c-0.331,0.029-0.458,0.004-0.58-0.029c-0.218-0.064-0.531-0.107-1.217,0.166c-1.112,0.445-1.485,0.799-2.268,1.692   c-0.539,0.616-0.649,1.412-0.757,2.185c-0.062,0.441-0.125,0.898-0.271,1.3c-0.283,0.778-0.343,1.661-0.402,2.514   c-0.034,0.502-0.067,0.976-0.141,1.421c-0.084,0.51-0.204,1.324-0.329,2.186c-0.178,1.221-0.379,2.603-0.5,3.209   c-0.192,0.957-1.154,6.561-1.154,7.688c0,0.393-0.068,0.783-0.134,1.163c-0.101,0.579-0.205,1.179-0.058,1.765   c0.156,0.627,0.521,0.934,1.114,0.934c0.18,0,0.396-0.03,0.652-0.068c0.184-0.025,0.392-0.058,0.626-0.078   c0.138-0.013,0.25-0.02,0.35-0.021c-0.081,0.467-0.232,1.08-0.482,1.43c-0.295,0.414-0.808,0.635-1.352,0.869   c-0.244,0.104-0.488,0.212-0.743,0.348c-0.748,0.396-2.139,1.133-2.835,1.325c-0.636,0.179-0.951,0.254-1.738,0.353   c-0.21,0.026-0.391,0.043-0.556,0.058c-0.49,0.041-0.912,0.077-1.528,0.349c-0.428,0.188-0.707,0.541-0.765,0.969   c-0.064,0.475,0.145,0.957,0.56,1.293c0.461,0.373,1.75,0.508,2.868,0.508c0.667,0,1.271-0.049,1.603-0.12   c0.309-0.067,0.766-0.147,1.272-0.238c1.063-0.19,2.27-0.403,2.926-0.624c0.449-0.152,1.566,0.113,2.381,0.307   c0.622,0.146,1.16,0.273,1.531,0.273l0.272,0.003c0.778,0.005,1.852,0.024,2.259-0.925c0.379-0.885,0.241-2.154,0.033-3.396   c-0.101-0.604-0.222-1.135-0.322-1.537c0.288-0.024,0.457-0.153,0.543-0.271c0.306-0.407,0.328-1.005,0.354-1.761   c0.011-0.303,0.022-0.635,0.054-0.985c0.02-0.216,0.039-0.495,0.062-0.819c0.093-1.336,0.248-3.569,0.689-4.774   c0.641-1.752,0.811-4.073,0.811-5.058c0-0.883-0.08-3.545-0.337-4.314c-0.073-0.221-0.174-0.42-0.266-0.59   c0.078-0.025,0.153-0.057,0.223-0.085c0.179-0.073,0.333-0.134,0.512-0.134c0.069,0,0.164,0.066,0.326,0.188   c0.282,0.21,0.668,0.497,1.346,0.634c1.005,0.2,3.901,1.235,4.906,1.637c1.008,0.404,3.769,1.393,5.251,1.922l0.173,0.062   c0.817,0.291,1.056,0.696,1.534,1.506c0.232,0.394,0.521,0.883,0.942,1.444c1.37,1.827,3.895,2.06,5.133,2.171   c0.465,0.045,0.839-0.039,1.139-0.169c0.002,0.202,0.008,0.399,0.022,0.556c0.012,0.137-0.013,0.562-0.037,0.975   c-0.062,1.052-0.139,2.361,0.052,3.062c0.149,0.547,0.215,2.887,0.263,4.596c0.029,1.037,0.054,1.933,0.092,2.389   c0.023,0.282,0.041,0.663,0.062,1.088c0.118,2.471,0.247,3.648,0.705,4.105c0.472,0.473,0.88,0.472,1.574,0.447   c0.305-0.014,0.692-0.025,1.218,0.008C52.014,94.993,52.318,95,52.682,95c1.142,0,2.81-0.064,4.422-0.128   c1.342-0.054,2.588-0.103,3.299-0.103l0.951,0.006c0.483,0.002,1.045,0.007,1.64,0.007c3.03,0,4.847-0.107,5.716-0.341   c0.736-0.195,1.641-0.522,2.514-0.838c0.967-0.352,1.965-0.713,2.543-0.816c0.562-0.102,1.545-0.016,2.461,0.085   c0.617,0.067,1.203,0.131,1.715,0.131c0.529,0,1.158,0.239,1.822,0.493c0.727,0.277,1.551,0.592,2.409,0.65   c1.593,0.099,3.89-0.39,4.872-1.014c0.838-0.531,1.538-1.302,2.141-2.354C89.93,89.475,89.559,86.773,89.354,85.842z    M58.197,69.354c0.732,0.781,1.425,1.52,1.891,1.904l0.82,0.676c1.203,0.986,3.023,2.479,3.58,3.037   c0.117,0.118,0.265,0.275,0.424,0.447c-0.54,0.623-1.959,2.217-3.195,3.23c-1.222,1.002-3.418,2.562-4.314,3.19   c-0.762-1.024-1.769-2.192-2.387-2.896c0.379-0.16,0.698-0.455,1.228-1.086c0.305-0.362,0.718-0.64,1.083-0.883   c0.439-0.291,0.816-0.543,1.003-0.918c0.055-0.108,0.155-0.24,0.261-0.386c0.408-0.558,1.09-1.487,0.428-2.329   c-0.82-1.04-2.074-0.267-2.746,0.148l-0.09,0.056c-0.115,0.071-0.23,0.146-0.35,0.226c-0.223,0.145-0.445,0.291-0.713,0.432   c-0.047-0.555-0.092-1.594,0.047-2.909c0.152-1.44,0.759-3.123,1.076-3.931C56.791,67.857,57.527,68.641,58.197,69.354z    M53.877,79.167c0.007-0.001,0.012-0.001,0.018-0.002c0.959,1.065,3.067,3.508,3.527,4.505c0.469,1.014,1.68,3.785,2.237,5.066   c-0.313,0.006-0.649,0.01-0.999,0.014c-1.393,0.014-2.707,0.025-3.271,0.162l-0.132,0.031c-0.181,0.046-0.403,0.101-0.438,0.104   c-0.025-0.021-0.105-0.12-0.267-0.555c-0.188-0.512-0.608-1.176-1.054-1.878c-0.496-0.785-1.061-1.673-1.203-2.234l-0.079-0.304   c-0.267-1.02-0.497-1.9-0.362-2.942c0.057-0.444,0.064-0.894,0.072-1.291c0.006-0.345,0.016-0.802,0.07-0.995   c0.089,0.008,0.201,0.047,0.361,0.104C52.701,79.072,53.173,79.238,53.877,79.167z M51.262,16.426   c-0.392-0.441-1.119-1.262-1.092-1.556c0.051-0.547,0.627-1.261,1.467-1.819c0.465-0.307,1.334-1.08,2.178-1.827   c0.664-0.59,1.291-1.147,1.646-1.413c0.304-0.227,0.675-0.495,1.054-0.77c0.672-0.484,1.364-0.985,1.774-1.326   c0.276-0.23,0.56-0.54,0.83-0.838c0.313-0.342,0.702-0.768,0.909-0.851c0.074-0.031,0.174-0.047,0.279-0.047   c0.26,0,0.432,0.09,0.449,0.071c0.025,0.245-0.32,1.34-0.753,1.933c-0.487,0.671-1.497,2.247-2.036,3.287   c-0.59,1.145-1.24,2.928-1.502,3.711c-0.23,0.693-1.125,3.758-1.092,4.748c0.01,0.282-0.004,0.724-0.02,1.252   c-0.004,0.119-0.006,0.256-0.011,0.384c-0.331-0.147-0.792-0.342-1.253-0.508c-0.568-0.206-1.564-0.231-2.182-0.225   c0.406-0.899,0.697-2.179,0.354-2.9C52.076,17.344,51.682,16.898,51.262,16.426z M23.826,91.693   c-0.137,0.32-0.604,0.338-1.342,0.328l-0.286-0.004c-0.257,0-0.79-0.125-1.306-0.246c-1.083-0.256-2.203-0.52-2.918-0.282   c-0.588,0.196-1.808,0.413-2.788,0.589c-0.52,0.092-0.99,0.177-1.309,0.246c-0.925,0.201-3.275,0.076-3.642-0.19   c-0.141-0.114-0.221-0.27-0.204-0.396c0.004-0.031,0.017-0.129,0.184-0.201c0.468-0.204,0.75-0.229,1.218-0.27   c0.176-0.015,0.369-0.031,0.593-0.06c0.851-0.106,1.209-0.192,1.881-0.381c0.798-0.224,2.195-0.963,3.054-1.417   c0.209-0.111,0.43-0.205,0.649-0.301c0.644-0.277,1.309-0.564,1.763-1.199c0.383-0.537,0.571-1.344,0.66-1.883   c0.191,0.039,0.426,0.078,0.768,0.109c0.435,0.038,1.141,0.299,1.763,0.525c0.288,0.105,0.553,0.199,0.802,0.281   c0.1,0.353,0.285,1.06,0.426,1.902C23.957,89.827,24.107,91.037,23.826,91.693z M76.33,91.895c-0.99-0.107-2.053-0.201-2.74-0.076   c-0.66,0.121-1.652,0.48-2.703,0.859c-0.854,0.311-1.736,0.629-2.433,0.813c-1.149,0.307-4.396,0.307-5.462,0.307   c-0.592,0-1.15-0.004-1.633-0.007l-0.957-0.004c-0.721,0-1.98,0.048-3.338,0.102c-1.986,0.077-4.295,0.17-5.213,0.106   c-0.271-0.019-0.506-0.022-0.717-0.022c-0.23,0-0.431,0.008-0.604,0.014c-0.491,0.015-0.67,0.012-0.837-0.153   c-0.274-0.345-0.374-2.45-0.422-3.463c-0.021-0.438-0.04-0.831-0.064-1.122c-0.036-0.438-0.061-1.327-0.089-2.335   c-0.068-2.438-0.129-4.213-0.296-4.826c-0.148-0.547-0.071-1.87-0.02-2.747c0.035-0.58,0.053-0.918,0.035-1.119   c-0.025-0.277-0.021-0.723-0.013-1.057l0.1,0.061l0.457,0.193c0.291-0.484,0.653-1.091,1.261-1.428   c0.264-0.146,0.549-0.146,1.074-0.131c0.489,0.012,1.104,0.027,1.917-0.129c1.429-0.277,2.153-0.754,2.736-1.137   c0.108-0.07,0.216-0.141,0.323-0.207l0.093-0.057c0.784-0.482,1.226-0.674,1.457-0.377c0.185,0.234-0.095,0.652-0.449,1.139   c-0.146,0.198-0.272,0.381-0.349,0.529c-0.068,0.139-0.387,0.352-0.668,0.537c-0.398,0.266-0.896,0.599-1.289,1.068   c-0.723,0.861-0.742,0.862-1.727,0.963c-0.472,0.047-0.777-0.061-1.076-0.166c-0.291-0.104-0.592-0.207-0.961-0.141   c-0.748,0.146-0.767,1.018-0.783,1.94c-0.008,0.39-0.017,0.794-0.066,1.184c-0.156,1.232,0.107,2.245,0.389,3.317l0.077,0.301   c0.183,0.71,0.765,1.628,1.325,2.514c0.396,0.629,0.811,1.28,0.963,1.693c0.322,0.875,0.63,1.174,1.166,1.174   c0.197,0,0.426-0.041,0.697-0.105l0.125-0.031c0.457-0.109,1.896-0.124,3.05-0.135c0.638-0.006,1.243-0.014,1.731-0.032H60.4   l0.002-0.001c0.193-0.008,0.371-0.016,0.521-0.028c1.246-0.104,4.255-0.312,4.257-0.312l-0.068-0.981c0,0-2.961,0.204-4.231,0.31   c1.013-0.918,3.236-2.778,5.099-3.246c1.871-0.471,4.092-0.881,5.088-1.057c0.059,0.09,0.11,0.188,0.182,0.258l1.561,1.56   c0.646,0.646,1.594,0.664,1.698,0.664c0.159,0,0.31-0.078,0.402-0.209c0.092-0.132,0.114-0.298,0.062-0.448   c-0.191-0.538-0.449-1.494-0.394-1.834c0.062-0.374,0.5-0.628,0.87-0.63c0.523-0.004,1.201-0.345,1.697-0.592   c0.146-0.073,0.268-0.138,0.353-0.169c0.43-0.172,0.597-0.674,0.651-1.166c0.424,0.148,0.94,0.322,1.215,0.38   c0.305,0.062,0.488,0.112,0.639,0.157c0.243,0.069,0.436,0.123,0.882,0.143c0.459,0,0.849-0.236,1.224-0.468   c0.279-0.173,0.545-0.335,0.865-0.373c0.027,0,0.065,0.008,0.098,0.009c0.007,0.068,0.025,0.145,0.07,0.234   c0.209,0.416,1.039,1.354,1.039,2.027s-0.623,0.989-1.455,1.301c-0.832,0.313-1.457,0.104-1.978,0.213   c-0.521,0.107-0.728,0.828-0.521,1.66c0.209,0.83,1.146,0.312,1.561,1.039c0.417,0.729,0,1.25-0.624,1.77s-0.937,0.729-1.562,0.936   c-0.394,0.131-0.951,0.758-1.311,1.203c-0.117-0.014-0.234-0.031-0.354-0.031C77.48,92.02,76.922,91.959,76.33,91.895z" style="fill:#8C8C8C;"/></g><g id="Top"><path d="M78.191,93.067c0,0-0.29-0.74,0.318-1.376s0.767-0.663,1.455-1.086s1.139-0.688,1.456-1.006   s0.481-0.66,0.424-1.059s-0.449-0.692-0.927-0.82c-0.59-0.158-0.82-0.397-0.847-0.953s-0.026-0.846,0.238-1.19   s0.636-0.372,1.218-0.318s1.086-0.026,1.562-0.291s0.849-0.358,0.952-0.899c0.105-0.549-0.131-0.608-0.449-1.244   s-0.583-0.714-0.636-1.085s-0.201-0.992,0.019-1.065s0.404-0.073,1.278,0.139s1.992,0.571,2.653,1.047s0.945,0.833,1.502,1.706   s0.953,1.456,1.139,2.779s0.296,2.561,0.031,3.593s-0.731,1.612-1.354,2.31c-0.771,0.862-1.456,1.244-2.7,1.588   s-2.945,0.618-4.367,0.259c-1.002-0.253-2.042-0.768-2.703-0.953L78.191,93.067z" style="fill:#6F6F6F;"/><g><path d="M77.669,94.269c-0.003,0-0.006,0-0.009,0l0.001-0.283l0.204-0.196l-0.204,0.196l-0.17-0.226    c0.081-0.068,0.723-0.724,1.289-1.301c2.129-2.175,2.129-2.175,2.296-2.176c0.001,0,0.001,0,0.002,0    c0.099,0,0.191,0.053,0.243,0.138s0.055,0.191,0.008,0.28l-0.885,1.658c1.9-1.773,6.189-6.249,8.999-9.247    c0.054-0.058,0.121-0.092,0.207-0.089c0.075,0,0.146,0.029,0.2,0.082c0.066,0.066,0.129,0.129,0.001,0.39l0.006,0.006    c-0.006,0.006-0.012,0.012-0.018,0.018c-0.181,0.354-0.691,1.052-1.944,2.537c0.117-0.074,0.207-0.114,0.267-0.116    c0.064-0.018,0.184,0.038,0.239,0.093c0.096,0.096,0.11,0.245,0.036,0.357l-2.616,3.945c1.155-1.164,2.662-2.723,3.758-3.87    c0.054-0.057,0.131-0.073,0.205-0.088c0.075,0,0.147,0.029,0.2,0.083c0.175,0.174,0.424,0.423-2.768,4.662    c0.598-0.63,1.239-1.319,1.854-1.992c0.104-0.114,0.283-0.123,0.399-0.019c0.116,0.105,0.125,0.284,0.021,0.399    c-0.521,0.576-1.101,1.261-1.356,1.614c0.016,0.089-0.012,0.183-0.081,0.251c-0.024,0.022-0.051,0.041-0.079,0.055    c-0.059,0.062-0.142,0.134-0.198,0.141c-0.061,0.009-0.117-0.003-0.169-0.03c-2.425,2.561-2.688,2.566-2.801,2.569    c-0.095-0.005-0.172-0.035-0.227-0.089c-0.102-0.102-0.111-0.263-0.022-0.376c1.418-1.809,2.881-3.756,3.848-5.137    c-3.835,3.975-4.022,3.977-4.151,3.978c-0.066,0.003-0.156-0.03-0.21-0.085c-0.096-0.095-0.11-0.244-0.036-0.356l2.955-4.456    c-1.359,1.323-3.554,3.643-5.54,5.823c-0.107,0.115-0.285,0.125-0.4,0.02c-0.115-0.104-0.125-0.283-0.021-0.399    c0.948-1.057,2.073-2.321,3.187-3.586c-2.357,2.412-4.236,4.218-4.581,4.224c-0.054,0.001-0.174-0.036-0.228-0.091    c-0.089-0.088-0.108-0.224-0.05-0.334l0.628-1.178c-0.267,0.272-0.538,0.549-0.772,0.788C77.83,94.239,77.8,94.269,77.669,94.269z    " style="fill:#7C7C7C;"/><path d="M81.903,90.493c-0.078,0-0.183-0.041-0.236-0.095c-0.104-0.104-0.111-0.269-0.019-0.381    c1.656-2.002,3.4-4.175,4.552-5.69c-1.509,1.507-3.704,3.744-5.352,5.437c-0.053,0.055-0.13,0.097-0.203,0.085    c-0.075,0-0.147-0.029-0.2-0.083c-0.179-0.178-0.143-0.271,0.395-1.221c-0.095,0.069-0.137,0.07-0.188,0.069    c-0.073,0-0.146-0.029-0.199-0.081c-0.101-0.098-0.115-0.254-0.033-0.368c0.366-0.513,0.797-1.115,1.211-1.697    c-0.009,0.001-0.006,0.001-0.028,0.001c-0.074,0-0.15-0.031-0.204-0.083c-0.015-0.016-0.027-0.028-0.038-0.041    c-0.056,0.058-0.112,0.116-0.168,0.174c-0.515,0.53-0.515,0.53-0.644,0.531l-0.003-0.283l0.2-0.2l-0.2,0.2l-0.175-0.222    c0.047-0.041,0.223-0.224,0.414-0.421c0.76-0.785,0.79-0.812,1.002-0.609c0.021,0.02,0.038,0.042,0.052,0.066    c0.202-0.208,0.445-0.467,0.637-0.67c0.9-0.957,0.906-0.957,1.062-0.959c0.077,0.006,0.154,0.03,0.207,0.084    c0.161,0.161,0.186,0.185-1.686,2.81c0.014,0.01,0.027,0.021,0.04,0.034c0.166,0.165,0.141,0.315-0.273,1.069    c5.671-5.804,5.808-5.805,5.952-5.805h0.001c0.076,0,0.151,0.031,0.204,0.085c0.181,0.18,0.382,0.381-3.258,4.916    c0.737-0.783,1.535-1.652,2.295-2.501c0.104-0.116,0.282-0.127,0.4-0.021c0.116,0.104,0.126,0.283,0.021,0.4    c-2.227,2.486-4.994,5.454-5.533,5.47C81.907,90.493,81.905,90.493,81.903,90.493z" style="fill:#7C7C7C;"/><path d="M83.453,86.095L83.453,86.095c-0.076,0-0.147-0.03-0.201-0.083    c-0.192-0.194-0.143-0.382,0.667-2.512c0.244-0.642,0.565-1.487,0.769-2.103c-2.204,2.214-2.214,2.214-2.335,2.214v-0.283l0.2-0.2    l-0.2,0.2l-0.186-0.214c0.097-0.088,1.712-1.709,2.774-2.776c0.054-0.053,0.125-0.083,0.2-0.083c0.001,0,0.001,0,0.001,0    c0.075,0,0.146,0.029,0.2,0.082c0.24,0.24,0.115,0.712-0.895,3.365c-0.141,0.371-0.297,0.782-0.429,1.142l1.438-1.438    c0.042-0.042,0.097-0.07,0.155-0.08l0.085-0.014c0.242-0.176,1.146-1.125,1.924-1.987c0.106-0.117,0.285-0.126,0.4-0.021    c0.116,0.105,0.126,0.284,0.021,0.4c-1.891,2.098-2.122,2.168-2.256,2.174l-2.135,2.134    C83.601,86.065,83.528,86.095,83.453,86.095z" style="fill:#7C7C7C;"/></g><path d="M56.501,82.394c0,0,2.271-1.688,3.312-2.417s1.75-1.333,2.625-2.104s1.708-1.73,2.125-2.146   s1.042-1.062,1.042-1.062s0.417,0.396,1.125,1.209s1.647,1.829,2.208,2.375s1.126,1,1.542,1.583s0.688,0.833,0.958,2.208   s0.505,1.906,0.505,1.906s-0.52,0.352-0.877,0.441s-1.294,0.319-2.273,0.507s-2.667,0.541-3.292,0.812s-1.75,0.771-2.375,1.229   s-2.246,1.754-2.246,1.754l-1.296,0.037c0,0-0.583-1.333-1.021-2.375s-0.767-1.849-1.125-2.521S56.501,82.394,56.501,82.394z" style="fill:#848484;"/><g><path d="M58.634,87.264c-0.075,0-0.147-0.029-0.2-0.083c-0.413-0.412,0.618-2.22,3.07-5.393    c-0.432,0.421-0.828,0.779-1.156,1.029c-1.073,1.076-2.069,2.076-2.741,2.751c-0.054,0.053-0.126,0.083-0.201,0.083l0,0    c-0.075,0-0.147-0.029-0.2-0.083c-0.06-0.059-0.128-0.164-0.123-0.329c0.014-0.456,0.91-1.543,2.13-2.815    c0.016-0.202,0.049-0.471,0.103-0.831l-3.003,3.002c-0.109,0.111-0.291,0.111-0.4,0c-0.111-0.11-0.111-0.29,0-0.4l3.62-3.619    c0.109-0.111,0.291-0.111,0.4,0c0.105,0.104,0.095,0.167,0.046,0.464c-0.047,0.28-0.084,0.517-0.113,0.716    c2.193-2.212,5.02-4.729,5.864-5.477c0.11-0.097,0.279-0.095,0.386,0.01c0.106,0.104,0.114,0.272,0.019,0.386    c-0.037,0.045-0.078,0.093-0.12,0.143c0.012,0.016,0.022,0.033,0.03,0.052c0.047,0.1,0.031,0.218-0.041,0.303    c-2.677,3.16-5.397,6.639-6.555,8.47c2.482-2.769,7.139-7.834,8.003-7.859c0.112,0,0.207,0.034,0.277,0.105    c0.096,0.096,0.11,0.245,0.035,0.357c-1.376,2.061-2.822,4.292-3.769,5.839c2.549-2.85,3.438-3.598,3.843-3.678    c1.124-1.152,2.107-2.038,2.485-2.053c0.107-0.002,0.211,0.034,0.284,0.107c0.103,0.103,0.111,0.266,0.02,0.379    c-1.134,1.397-2.629,3.265-3.835,4.81c4.07-4.113,4.128-4.113,4.262-4.114c0.001,0,0.001,0,0.001,0c0.075,0,0.147,0.03,0.2,0.083    c0.084,0.083,0.135,0.142,0.098,0.263c0.098-0.059,0.222-0.055,0.314,0.014c0.113,0.083,0.148,0.236,0.083,0.36l-1.829,3.479    c0.156-0.158,0.308-0.311,0.439-0.445c0.053-0.054,0.125-0.084,0.201-0.084h0.001c0.018,0,0.034,0.001,0.052,0.005l0.447-0.447    c0.111-0.111,0.291-0.111,0.4,0c0.111,0.11,0.111,0.29,0,0.4l-1.026,1.025c-0.065,0.067-0.161,0.092-0.243,0.08    c-1.239,1.257-1.255,1.257-1.383,1.257c0,0,0,0-0.001,0c-0.099,0-0.19-0.052-0.242-0.136c-0.052-0.085-0.055-0.191-0.009-0.279    l1.822-3.466l-1.991,1.99c-0.109,0.111-0.291,0.111-0.4,0c-0.09-0.09-0.142-0.151-0.083-0.298    c-1.095,1.103-2.284,2.306-3.269,3.305c-0.054,0.054-0.126,0.084-0.201,0.084h-0.001c-0.075,0-0.147-0.029-0.2-0.083    c-0.177-0.176-0.3-0.299,2.473-3.822c-0.799,0.833-1.751,1.742-2.47,2.412c-0.11,0.102-0.281,0.102-0.39-0.003    c-0.021-0.02-0.038-0.042-0.052-0.066c-0.161,0.183-0.329,0.373-0.503,0.571c-0.489,0.559-0.489,0.559-0.618,0.562    c-0.072,0.004-0.154-0.027-0.21-0.083c-0.189-0.188-0.402-0.401,4.102-7.191c-1.6,1.43-4.839,4.893-7.72,8.147    c-0.052,0.059-0.125,0.094-0.203,0.096C58.64,87.264,58.637,87.264,58.634,87.264z M68.276,80.772    c-0.002,0.029-0.009,0.062-0.021,0.099c0.114-0.143,0.232-0.288,0.353-0.438C68.501,80.541,68.39,80.655,68.276,80.772z" style="fill:#939393;"/></g><path d="M43.646,62.598c0,0,0.938-1.875,1.125-2.583s0.98-3.996,1.126-4.913s0.521-4.313,0.604-5.334   s0.542-5.646,0.583-6.23s0.146-2.208,0.188-3.208s0.479-5.292,0.688-6.896s0.458-2.854,0.583-4.562s0.208-2.563,0.312-3.521   s0.333-2.062,0.938-3.25s0.582-1.125,0.791-1.312s0.979-0.291,1.917-0.208s1.604,0.104,2.333,0.479s1.542,0.729,1.542,0.729   s0.083,2.354,0.062,3.458s-0.125,5.083-0.188,6.083s-0.23,3.042-0.188,3.855s0.334,3.062,0.479,3.688s0.437,3.063,0.521,3.854   s0.001,2.562-0.041,3.916s-0.083,3.208-0.125,3.854s-0.667,6.957-0.771,8.062s-0.443,3.833-0.438,4.707s0.063,1.541,0.146,1.938   s0.646,1.021,0.646,1.021s-0.604,2.167-0.75,2.688s-0.584,2.562-0.584,3.646s-0.026,1.646-0.026,1.646s-0.287,0.352-1.328,0.498   s-1.812-0.082-2.666,0.021s-1.417,0.312-1.875,0.833s-0.937,0.729-1.167,1.271s-0.25,0.931-0.25,0.931s-0.25,0.319-1.25,0.236   s-2.104-0.229-2.938-0.604s-1.396-0.729-1.833-1.188s-1.104-1.541-1.333-1.979s-0.375-0.688-0.708-0.959s-1.479-0.666-1.979-0.854   s-3.334-1.21-4.209-1.543s-2.188-0.812-3.125-1.125s-1.646-0.438-2.188-0.604s-0.979-0.562-1.146-0.646s-0.625,0.125-0.625,0.125   s0.208,0.437,0.292,1.083s0.209,2.334,0.229,3.209s0,2.271-0.312,3.749s-0.625,2.187-0.729,2.729s-0.333,1.958-0.375,2.812   s-0.125,1.626-0.146,2.188s0,1.207-0.083,1.666s-0.229,0.791-0.5,1s-1.041,0.126-1.333,0.021s-1.262-0.521-2-0.729   s-2.146-0.438-2.604-0.417s-1.208,0.229-1.646,0.188s-0.958-0.375-1.042-0.916s-0.063-1.5,0.042-1.958s0.25-1.749,0.312-2.396   s0.583-4.042,0.833-5.417s0.25-1.438,0.48-2.958s0.417-2.541,0.542-3.708s0.104-1.854,0.208-2.542s0.229-0.895,0.375-1.479   s0.188-1.271,0.396-2s0.417-0.999,1-1.604s1.438-1.043,1.854-1.209s0.812-0.187,1.021-0.166s0.25,0.083,0.438,0.083   s1.313-0.104,2.104-0.104s2.083,0.022,4.104,0.23s3.833,0.375,4.917,0.583s2.147,0.271,3.501,0.646s2.854,0.771,3.667,1.021   L43.646,62.598z" style="fill:#848484;"/><g><path d="M21.065,87.575c-0.075,0-0.147-0.029-0.2-0.083c-0.054-0.053-0.092-0.149-0.091-0.226    c0-0.089,0.032-0.181,0.144-0.33c-0.197-0.225-0.04-0.456,0.873-1.524c-0.045,0.016-0.075,0.016-0.096,0.016    c-0.05,0-0.109-0.016-0.159-0.041c-0.771,0.736-0.819,0.692-0.943,0.582c-0.165-0.165-0.438-0.438,2.262-4.895l-3.503,3.503    c-0.567,0.572-1.021,1.023-1.291,1.29c-0.112,0.109-0.291,0.109-0.4-0.001c-0.11-0.111-0.11-0.29,0.001-0.4l1.337-1.337    c3.283-3.321,6.368-6.717,7.5-8.389c-7.821,8.149-8.151,8.153-8.294,8.154c-0.001,0-0.002,0-0.003,0    c-0.076,0-0.157-0.032-0.21-0.086c-0.076-0.075-0.123-0.122,0.114-0.457l-0.001-0.003c0.001-0.001,0.003-0.002,0.005-0.003    c0.277-0.392,0.935-1.172,2.366-2.829c-2.741,2.768-4.255,4.165-4.518,4.168c-0.04-0.001-0.165-0.033-0.22-0.088    c-0.2-0.2-0.173-0.481,0.606-1.433c-0.041,0.021-0.086,0.033-0.133,0.033h0c-0.075,0-0.147-0.029-0.201-0.083    c-0.432-0.433,0.274-1.5,4.444-6.72c1.272-1.592,2.861-3.581,3.767-4.878l-6.982,6.981c-0.107,0.107-0.278,0.112-0.389,0.011    c-0.112-0.101-0.126-0.271-0.032-0.389l13.111-16.346c-2.588,2.371-7.969,8.108-11.507,12.004    c-0.052,0.058-0.125,0.091-0.203,0.093c-0.084-0.009-0.152-0.027-0.207-0.083c-0.771-0.77,1.194-3.172,7.113-9.553    c1.121-1.208,2.327-2.509,3.176-3.486c-1.107,1.118-2.645,2.773-3.898,4.123c-3.642,3.921-4.339,4.611-4.667,4.617    c-0.089-0.001-0.172-0.035-0.226-0.09c-0.151-0.15-0.485-0.485,2.526-5.966c-1.544,1.57-2.124,2.138-2.376,2.344    c-0.006,0.008-0.012,0.015-0.018,0.021l-0.003-0.004c-0.127,0.101-0.169,0.128-0.208,0.101c-0.111,0-0.212-0.065-0.258-0.167    c-0.046-0.102-0.029-0.221,0.044-0.305c0.789-0.896,1.593-1.843,2.297-2.703c-0.396,0.36-0.672,0.545-0.827,0.551    c-0.089-0.005-0.202-0.041-0.258-0.098c-0.038-0.037-0.062-0.082-0.075-0.13c-0.292,0.3-0.572,0.589-0.82,0.846    c-0.108,0.112-0.289,0.115-0.401,0.007c-0.113-0.109-0.116-0.288-0.007-0.401c3.518-3.643,3.608-3.644,3.757-3.645    c0,0,0.001,0,0.002,0c0.076,0,0.15,0.031,0.204,0.085c0.048,0.047,0.092,0.091,0.099,0.167c0.179-0.205,0.355-0.411,0.527-0.614    c0.051-0.06,0.125-0.097,0.205-0.1c0.078-0.005,0.155,0.026,0.212,0.083c0.129,0.128,0.329,0.328-0.885,1.979    c0.079-0.021,0.17-0.005,0.241,0.048c0.114,0.086,0.146,0.242,0.076,0.366c-1.469,2.592-2.966,5.456-3.442,6.683    c0.82-0.78,2.477-2.564,3.867-4.061c4.19-4.512,5.248-5.55,5.659-5.558c0.001,0,0.003,0,0.004,0c0.077,0,0.183,0.041,0.236,0.095    c0.39,0.391-0.097,1.019-4.346,5.598c-2.158,2.327-5.865,6.322-6.873,8.046c3.389-3.715,11.533-12.516,12.633-12.542    c0.069,0.002,0.216,0.05,0.271,0.104c0.102,0.103,0.111,0.265,0.021,0.378L20.499,74.436l4.494-4.493    c0.053-0.054,0.125-0.083,0.2-0.083l0,0c0.075,0,0.147,0.029,0.201,0.083c0.439,0.439-0.275,1.521-4.498,6.807    c-1.124,1.407-2.499,3.128-3.417,4.391c0.761-0.819,1.88-1.954,3.355-3.402c2.439-2.539,3.434-3.436,3.884-3.753    c0.144-0.137,0.289-0.275,0.437-0.416l0.037,0.038c0.227-0.161,0.278-0.112,0.358-0.034c0.055,0.054,0.085,0.127,0.084,0.204    c-0.001,0.076-0.033,0.149-0.088,0.202c-0.027,0.026-0.056,0.054-0.083,0.08c0.059,0.269-0.496,0.87-3.635,4.09    c-1.302,1.336-3,3.077-4.189,4.39c2.425-2.369,6.764-6.855,9.724-9.966c0.106-0.112,0.281-0.117,0.396-0.015    c0.114,0.104,0.124,0.279,0.023,0.396c-1.449,1.669-3.502,4.035-5.317,6.131c1.533-1.565,3.196-3.286,4.507-4.657    c0.053-0.056,0.104-0.102,0.205-0.087c0.075,0,0.147,0.029,0.201,0.083c0.065,0.064,0.142,0.182,0.142,0.371    c-0.002,0.662-1.279,2.332-2.908,4.194c0.063,0.091,0.068,0.214,0.006,0.312c-1.238,1.969-2.51,4.122-3.15,5.373    c0.258-0.259,0.555-0.556,0.861-0.862c0.331-0.352,0.776-0.801,1.376-1.379c0.088-0.084,0.217-0.104,0.321-0.051    c0.01-0.012,0.02-0.022,0.029-0.034c0.052-0.06,0.125-0.095,0.204-0.098c0.072-0.004,0.155,0.026,0.21,0.083    c0.168,0.168,0.154,0.391-0.115,0.819c0.051-0.021,0.077-0.027,0.125-0.022c0.076,0,0.156,0.032,0.21,0.086    c0.053,0.054,0.104,0.183,0.103,0.259c-0.002,0.24-0.242,0.577-0.885,1.243c0.183,0.098,0.466,0.245,0.662,0.346    c0.133,0.069,0.231,0.12,0.305,0.159c0.081-0.082,0.189-0.193,0.307-0.315c0.951-0.976,0.951-0.976,1.097-0.977l0.001,0.284    l-0.203,0.198l0.203-0.198l0.16,0.231c-0.08,0.064-0.563,0.561-0.852,0.856c-0.539,0.553-0.539,0.553-0.665,0.554    c0,0-0.001,0-0.002,0c-0.076,0-0.148-0.03-0.202-0.084c0.001-0.012-0.189-0.091-0.411-0.205c-0.422-0.219-0.658-0.344-0.795-0.424    c-0.35,0.28-1.362,1.352-2.237,2.337c-0.052,0.059-0.125,0.093-0.204,0.095C21.071,87.575,21.068,87.575,21.065,87.575z" style="fill:#939393;"/><path d="M52.009,75.688c-0.075,0-0.147-0.029-0.2-0.083c-0.148-0.148-0.155-0.154,1.934-5.55    c-0.825,0.75-2.295,2.441-2.935,3.177c-0.788,0.906-0.788,0.906-0.936,0.911l-0.01-0.283l0.198-0.201l-0.2,0.201l-0.167-0.225    c0.061-0.055,0.365-0.404,0.688-0.775c2.443-2.812,3.374-3.72,3.829-3.735c0.107,0.005,0.207,0.034,0.279,0.105    c0.079,0.08,0.104,0.199,0.064,0.304c-0.572,1.478-1.337,3.459-1.816,4.72c2.72-2.779,2.779-2.78,2.918-2.781c0,0,0.001,0,0.002,0    c0.075,0,0.148,0.03,0.201,0.084c0.148,0.147,0.176,0.271-0.143,0.671l0.101,0.121c-0.079,0.07-0.926,0.924-1.606,1.608    c-1.545,1.556-1.55,1.563-1.678,1.556c-0.062-0.001-0.123-0.023-0.171-0.062c-0.051,0.052-0.101,0.103-0.148,0.152    C52.158,75.658,52.088,75.663,52.009,75.688z" style="fill:#939393;"/><path d="M45.404,78.874c-0.075,0-0.147-0.029-0.201-0.083c-0.169-0.169-0.561-0.562,4.701-7.156    c-2.97,3.077-5.683,5.75-6.15,5.758c-0.094,0.002-0.182-0.04-0.237-0.094c-0.107-0.107-0.111-0.279-0.009-0.392l0.149-0.163    c-0.908,0.847-1.53,1.361-1.705,1.364c-0.001,0-0.002,0-0.003,0c-0.076,0-0.169-0.037-0.223-0.091    c-0.103-0.103-0.111-0.265-0.021-0.378c4.311-5.364,10.605-13.264,11.978-15.156c-1.624,0.868-7.476,7.146-12.681,13.306    c-0.051,0.061-0.125,0.098-0.205,0.101c-0.083-0.003-0.156-0.026-0.212-0.083c-0.192-0.192-0.513-0.513,5.959-7.756    c-0.262,0.275-0.52,0.546-0.771,0.809c-5.528,5.806-6.111,6.354-6.399,6.357c-0.087-0.013-0.161-0.033-0.215-0.087    c-0.107-0.107-0.111-0.279-0.008-0.392l1.613-1.764c-0.572,0.44-1.005,0.693-1.251,0.701c-0.165,0.006-0.28-0.066-0.341-0.127    c-0.326-0.326-0.916-0.916,5.93-8.771c-5.888,5.918-7.594,7.561-8.131,8.018l-0.052,0.066l-0.015-0.012    c-0.151,0.123-0.172,0.125-0.208,0.121c-0.075,0-0.148-0.03-0.202-0.083c-0.102-0.102-0.111-0.263-0.023-0.376l4.3-5.509    c-2.846,2.968-5.32,5.413-5.749,5.421c-0.001,0-0.003,0-0.004,0c-0.077,0-0.175-0.038-0.228-0.092    c-0.101-0.101-0.111-0.26-0.025-0.373l6.621-8.632c-2.161,2.132-5.578,5.7-7.947,8.224c-0.104,0.109-0.278,0.118-0.394,0.019    c-0.115-0.101-0.129-0.274-0.032-0.393c3.031-3.695,6.057-7.81,6.762-9.399l-7.37,7.37c-0.108,0.107-0.282,0.111-0.393,0.008    c-0.112-0.104-0.122-0.276-0.023-0.393c0.281-0.328,0.577-0.675,0.884-1.034c-0.35,0.272-0.619,0.417-0.805,0.424    c-0.119-0.008-0.235-0.038-0.315-0.119c-0.215-0.215-0.261-0.262,2.033-3.593c-1.711,1.855-3.493,3.643-4.022,3.662    c-0.104-0.004-0.209-0.034-0.281-0.106c-0.076-0.075-0.115-0.168-0.108-0.289c-1.206,1.17-1.305,1.141-1.354,1.156    c-0.075,0-0.15-0.03-0.204-0.084c-0.177-0.177-0.347-0.346,3.424-5.738c-6.164,6.437-6.541,6.441-6.675,6.443    c-0.001,0-0.002,0-0.003,0c-0.076,0-0.164-0.035-0.217-0.089c-0.111-0.11-0.111-0.29,0-0.4c0.048-0.048,0.109-0.075,0.171-0.082    c0.708-0.431,5.868-5.773,9.012-9.101c0.102-0.109,0.27-0.119,0.386-0.024c0.115,0.095,0.137,0.262,0.051,0.384    c-1.494,2.093-3.63,5.149-4.811,6.96c1.806-1.782,5.135-5.167,7.54-7.632c0.053-0.054,0.125-0.085,0.201-0.085    c0.046,0.007,0.148,0.029,0.202,0.083c0.192,0.193,0.26,0.261-0.718,1.284c0.012-0.001,0.024-0.002,0.035-0.002    c0.075,0,0.147,0.029,0.2,0.083c0.087,0.087,0.136,0.136,0.011,0.383l0.003,0.003c-0.004,0.005-0.008,0.01-0.013,0.015    c-0.164,0.314-0.593,0.936-1.538,2.301c-0.818,1.183-1.949,2.816-2.512,3.705c1.213-0.987,3.84-4.008,4.939-5.271    c1.115-1.282,1.115-1.282,1.272-1.288c0.082-0.005,0.156,0.027,0.212,0.083c0.172,0.173,0.252,0.254-2.062,3.029l3.008-3.009    c0.111-0.111,0.291-0.111,0.401,0c0.57,0.569-1.101,3.2-3.159,5.976c3.05-3.168,5.718-5.814,6.125-5.82    c0.103-0.01,0.172,0.035,0.226,0.09c0.1,0.101,0.111,0.26,0.024,0.373l-6.715,8.755c2.082-2.047,5.394-5.529,7.68-7.984    c0.103-0.111,0.276-0.119,0.392-0.022c0.115,0.099,0.133,0.271,0.04,0.391l-5.53,7.085c4.208-4.184,11.907-11.958,15.45-15.545    c0.109-0.109,0.288-0.113,0.399-0.004c0.112,0.108,0.115,0.287,0.008,0.399c-7.806,8.155-15.688,17.207-15.699,18.589    c0.777-0.213,3.704-3.034,7.374-6.888l8.99-9.829c0.104-0.113,0.283-0.124,0.398-0.02c0.116,0.104,0.126,0.282,0.023,0.398    c-0.723,0.817-2.291,2.584-4.197,4.679c1.352-1.334,1.891-1.753,2.121-1.756c0.075,0.007,0.176,0.037,0.23,0.092    c0.108,0.107,0.111,0.281,0.008,0.394c-1.134,1.22-2.42,2.615-3.736,4.058c1.469-1.402,2.668-2.363,3.219-2.387    c0.196-0.005,0.33,0.074,0.401,0.146c0.231,0.23,0.325,0.325-10.268,13.529c2.755-2.703,7.384-7.512,10.575-10.885    c0.106-0.115,0.284-0.12,0.399-0.014c0.113,0.106,0.121,0.284,0.016,0.399l-6.267,6.866c2.097-2.159,4.438-4.635,6.248-6.577    c0.105-0.111,0.28-0.12,0.395-0.019c0.115,0.102,0.128,0.276,0.029,0.395c-3.059,3.64-7.586,9.22-9.24,11.684    c0.092-0.017,0.188,0.007,0.258,0.077c0.111,0.11,0.111,0.29,0,0.4l-0.952,0.952C45.552,78.845,45.479,78.874,45.404,78.874z     M35.497,61.688c-0.266,0.268-0.569,0.572-0.916,0.918c-1.388,1.388-3.534,3.533-4.331,4.583    C31.268,66.334,33.427,64.041,35.497,61.688z" style="fill:#939393;"/><path d="M42.373,65.435c-0.075,0-0.147-0.029-0.2-0.082c-0.08-0.08-0.135-0.135,0.013-0.384l-0.016-0.016    c0.023-0.023,0.047-0.048,0.069-0.07c0.357-0.543,1.475-1.832,4.487-5.264c-0.708,0.598-1.268,0.967-1.585,0.979    c-0.173,0.019-0.303-0.068-0.369-0.134c-0.067-0.067-0.148-0.188-0.146-0.381c0.005-0.403,0.452-1.084,1.24-1.995    c-0.005-0.075,0.019-0.152,0.074-0.213l0.601-0.65c-0.169-0.004-0.277-0.076-0.34-0.14c-0.106-0.106-0.111-0.278-0.009-0.391    c3.087-3.402,7.472-8.357,9.888-11.324c-2.147,2.184-3.767,3.82-4.99,5.046c-2.277,2.509-4.743,5.005-5.574,5.042    c-0.191,0.012-0.303-0.068-0.369-0.134c-0.053-0.054-0.104-0.187-0.103-0.262c0-0.236,0.398-0.814,1.039-1.592    c-0.001-0.001-0.002-0.002-0.003-0.003c-0.1-0.099-0.111-0.257-0.027-0.369L54.9,41.211c-1.784,1.703-4.881,4.979-7.681,8.065    c-0.102,0.113-0.276,0.125-0.393,0.026s-0.134-0.272-0.039-0.392c3.177-4.019,6.433-8.444,7.458-10.269    c-0.421,0.458-0.975,1.095-1.49,1.687c-2.607,2.996-3.789,4.251-4.36,4.271c-0.113,0.012-0.226-0.037-0.304-0.115    c-0.106-0.106-0.111-0.277-0.012-0.389c3.362-3.778,6.919-8.044,7.886-9.637c-1.271,1.11-4.308,4.35-6.249,6.419    c-2.808,2.994-2.823,2.995-3.014,2.998c-0.08,0.013-0.154-0.029-0.209-0.084c-0.098-0.098-0.11-0.253-0.03-0.366    c1.697-2.372,4.017-5.666,5.625-8.037c-1.668,1.878-3.606,3.891-4.27,3.922c-0.137,0.005-0.243-0.037-0.326-0.12    c-0.476-0.476,0.326-1.518,3.536-5.115c0.958-1.074,2.229-2.499,3.015-3.521l-6.615,6.614c-0.109,0.11-0.29,0.111-0.4,0    c-0.286-0.285-0.123-0.67,2.248-3.299c-0.555,0.588-1.087,1.157-1.557,1.662c-0.105,0.114-0.284,0.122-0.399,0.016    c-0.115-0.105-0.124-0.284-0.019-0.399c2.396-2.646,5.776-6.478,7.743-8.891c-1.532,1.529-3.691,3.702-5.61,5.639    c-0.438,0.446-0.897,0.91-1.379,1.393l0,0c0,0-0.001,0.001-0.001,0.001c-0.11,0.112-0.289,0.111-0.4,0.001    c-0.111-0.11-0.112-0.29-0.002-0.4c0.357-0.36,0.699-0.707,1.029-1.04c2.369-2.418,4.641-4.901,5.811-6.408l-4.225,4.225    c-0.103,0.103-0.269,0.111-0.381,0.018c-0.113-0.094-0.135-0.258-0.053-0.378c1.091-1.592,3.458-5.051,4.72-6.901    c-1.429,1.351-3.856,4.024-5.072,5.363c-1.549,1.705-1.549,1.705-1.713,1.709c-0.077,0.006-0.154-0.028-0.208-0.083    c-0.102-0.102-0.111-0.264-0.022-0.376l2.746-3.472l-0.833,0.833c-0.108,0.107-0.28,0.109-0.393,0.008    c-0.112-0.103-0.122-0.276-0.023-0.392c0.41-0.483,0.918-1.083,1.398-1.652c-0.159-0.184-0.076-0.417,0.487-1.763    c0.056-0.134,0.119-0.286,0.183-0.44c-0.487,0.493-0.536,0.493-0.638,0.495c-0.06,0.006-0.152-0.03-0.206-0.083    c-0.111-0.111-0.111-0.291,0-0.401c0.021-0.021,0.045-0.039,0.07-0.052c0.137-0.117,0.712-0.705,1.216-1.235    c0.054-0.057,0.157-0.102,0.205-0.088c0.075,0,0.147,0.03,0.2,0.083c0.2,0.2,0.114,0.453-0.509,1.941    c-0.061,0.146-0.128,0.307-0.193,0.466c0.061-0.078,0.117-0.152,0.165-0.213c0.445-0.58,0.597-0.764,0.805-0.778    c0.063-0.01,0.184,0.031,0.241,0.09c0.04,0.041,0.073,0.074,0.08,0.125l0.785-0.786c0.104-0.107,0.277-0.111,0.389-0.011    c0.112,0.1,0.127,0.27,0.034,0.388l-1.305,1.649c1.883-1.975,2.735-2.695,3.112-2.704c0.082,0.006,0.215,0.049,0.27,0.104    c0.18,0.163,0.18,0.163-2.741,4.433l-1.059,1.547l3.328-3.328c0.109-0.11,0.291-0.11,0.4,0c0.191,0.191,0.058,0.646-0.397,1.364    c1.399-1.382,1.455-1.382,1.541-1.382l0,0c0.075,0,0.148,0.03,0.201,0.083c0.167,0.167,0.414,0.414-3.021,4.481    c0.145-0.092,0.182-0.09,0.225-0.088c0.076,0,0.168,0.036,0.221,0.09c0.276,0.275,0.318,0.318-3.048,3.975    c-0.069,0.075-0.14,0.151-0.211,0.229L54.796,29c0.053-0.053,0.125-0.083,0.2-0.083l0,0c0.075,0,0.147,0.03,0.2,0.083    c0.515,0.515-0.385,1.688-3.745,5.453c-1.324,1.483-3.084,3.456-3.449,4.202c0.909-0.55,3.641-3.525,6.009-6.38    c0.051-0.061,0.125-0.098,0.205-0.102c0.076-0.009,0.157,0.027,0.213,0.083c0.059,0.058,0.115,0.115,0.016,0.379l0.002,0.002    c-0.001,0.001-0.003,0.003-0.004,0.005c-0.24,0.631-1.353,2.421-5.361,8.084c0.074-0.079,0.147-0.157,0.222-0.237    c5.126-5.466,6.658-6.965,7.129-6.973c0.076-0.016,0.187,0.041,0.241,0.096c0.158,0.158,0.507,0.506-2.793,4.589    c0.568-0.615,0.747-0.734,0.912-0.74c0.092,0.005,0.175,0.035,0.23,0.09c0.495,0.494-1.665,3.67-3.926,6.706    c2.347-2.468,4.674-4.776,5.178-4.788c0.002,0,0.004,0,0.005,0c0.078,0,0.195,0.044,0.249,0.099c0.1,0.099,0.111,0.256,0.027,0.37    l-8.073,10.847c2.326-2.485,5.2-5.339,6.48-6.6c0.11-0.107,0.288-0.108,0.397,0c0.11,0.108,0.114,0.285,0.008,0.397    c-0.484,0.514-0.943,0.999-1.377,1.456c0.326-0.312,0.626-0.597,0.888-0.845c0.109-0.102,0.28-0.103,0.39,0    c0.035,0.034,0.061,0.074,0.075,0.118c0.897-0.911,1.771-1.8,2.565-2.609c0.053-0.054,0.125-0.084,0.201-0.085h0.001    c0.075,0,0.147,0.03,0.2,0.083c0.225,0.225,0.687,0.687-10.969,13.57c0.103-0.081,0.214-0.172,0.333-0.273l3.898-4.227    c0.453-0.503,0.874-0.961,1.261-1.368l4.142-4.49c0.104-0.113,0.278-0.123,0.396-0.021c0.115,0.102,0.129,0.277,0.03,0.395    c-0.321,0.384-0.918,1.094-1.674,1.974c0.06,0.025,0.104,0.061,0.137,0.093c0.055,0.054,0.096,0.161,0.095,0.238    c-0.005,0.377-0.791,1.165-3.889,4.105c-1.065,1.012-2.531,2.403-3.836,3.715c-0.948,1.067-1.427,1.569-1.714,1.792    c-0.757,0.838-1.276,1.508-1.325,1.822c1.055-0.264,6.145-5.704,10.612-10.993c0.052-0.061,0.126-0.097,0.205-0.1    c0.07-0.007,0.156,0.027,0.212,0.083c0.08,0.08,0.139,0.139,0.011,0.378l0.006,0.005c-0.009,0.009-0.017,0.02-0.025,0.029    c-0.373,0.654-2.015,2.542-7.688,9c-0.103,0.118-0.207,0.235-0.31,0.354c7.913-8.032,8.11-7.971,8.208-7.972    c0.075,0,0.152,0.031,0.205,0.085c0.111,0.11,0.111,0.29,0,0.4c-0.032,0.032-0.07,0.056-0.111,0.069    c-0.732,0.524-8.701,8.612-13.944,13.987c-0.053,0.054-0.125,0.085-0.201,0.085C42.374,65.435,42.373,65.435,42.373,65.435z     M47.797,52.359c-1.08,1.184-1.847,2.091-2.1,2.524c0.25-0.115,0.681-0.462,1.243-0.982c-0.024-0.056-0.04-0.119-0.04-0.163    C46.903,53.514,47.247,53.016,47.797,52.359z" style="fill:#939393;"/></g></g></svg>